<?xml version="1.0" encoding="utf-8" standalone="no"?>
<!DOCTYPE svg PUBLIC "-//W3C//DTD SVG 1.1//EN"
  "http://www.w3.org/Graphics/SVG/1.1/DTD/svg11.dtd">
<svg xmlns:xlink="http://www.w3.org/1999/xlink" width="1440pt" height="720pt" viewBox="0 0 1440 720" xmlns="http://www.w3.org/2000/svg" version="1.1">
 <metadata>
  <rdf:RDF xmlns:dc="http://purl.org/dc/elements/1.1/" xmlns:cc="http://creativecommons.org/ns#" xmlns:rdf="http://www.w3.org/1999/02/22-rdf-syntax-ns#">
   <cc:Work>
    <dc:type rdf:resource="http://purl.org/dc/dcmitype/StillImage"/>
    <dc:date>2025-02-28T22:09:40.307190</dc:date>
    <dc:format>image/svg+xml</dc:format>
    <dc:creator>
     <cc:Agent>
      <dc:title>Matplotlib v3.10.0, https://matplotlib.org/</dc:title>
     </cc:Agent>
    </dc:creator>
   </cc:Work>
  </rdf:RDF>
 </metadata>
 <defs>
  <style type="text/css">*{stroke-linejoin: round; stroke-linecap: butt}</style>
 </defs>
 <g id="figure_1">
  <g id="patch_1">
   <path d="M 0 720 
L 1440 720 
L 1440 0 
L 0 0 
z
" style="fill: #ffffff"/>
  </g>
  <g id="axes_1">
   <g id="patch_2">
    <path d="M 180 640.8 
L 687.272727 640.8 
L 687.272727 86.4 
L 180 86.4 
z
" style="fill: #ffffff"/>
   </g>
   <g id="FillBetweenPolyCollection_1">
    <defs>
     <path id="m4c268ce87e" d="M 203.057851 -79.229679 
L 203.057851 -79.2 
L 205.375223 -79.2 
L 207.692595 -79.2 
L 210.009967 -79.2 
L 212.327339 -79.2 
L 214.644711 -79.2 
L 216.962083 -79.2 
L 219.279455 -79.2 
L 221.596827 -79.2 
L 223.914199 -79.2 
L 226.231571 -79.2 
L 228.548943 -79.2 
L 230.866315 -79.2 
L 233.183687 -79.2 
L 235.501059 -79.2 
L 237.818431 -79.2 
L 240.135803 -79.2 
L 242.453175 -79.2 
L 244.770547 -79.2 
L 247.087919 -79.2 
L 249.405291 -79.2 
L 251.722663 -79.2 
L 254.040035 -79.2 
L 256.357407 -79.2 
L 258.674779 -79.2 
L 260.992151 -79.2 
L 263.309523 -79.2 
L 265.626895 -79.2 
L 267.944267 -79.2 
L 270.261639 -79.2 
L 272.579011 -79.2 
L 274.896383 -79.2 
L 277.213755 -79.2 
L 279.531127 -79.2 
L 281.848499 -79.2 
L 284.165871 -79.2 
L 286.483243 -79.2 
L 288.800615 -79.2 
L 291.117987 -79.2 
L 293.435359 -79.2 
L 295.752731 -79.2 
L 298.070103 -79.2 
L 300.387475 -79.2 
L 302.704847 -79.2 
L 305.022219 -79.2 
L 307.339591 -79.2 
L 309.656962 -79.2 
L 311.974334 -79.2 
L 314.291706 -79.2 
L 316.609078 -79.2 
L 318.92645 -79.2 
L 321.243822 -79.2 
L 323.561194 -79.2 
L 325.878566 -79.2 
L 328.195938 -79.2 
L 330.51331 -79.2 
L 332.830682 -79.2 
L 335.148054 -79.2 
L 337.465426 -79.2 
L 339.782798 -79.2 
L 342.10017 -79.2 
L 344.417542 -79.2 
L 346.734914 -79.2 
L 349.052286 -79.2 
L 351.369658 -79.2 
L 353.68703 -79.2 
L 356.004402 -79.2 
L 358.321774 -79.2 
L 360.639146 -79.2 
L 362.956518 -79.2 
L 365.27389 -79.2 
L 367.591262 -79.2 
L 369.908634 -79.2 
L 372.226006 -79.2 
L 374.543378 -79.2 
L 376.86075 -79.2 
L 379.178122 -79.2 
L 381.495494 -79.2 
L 383.812866 -79.2 
L 386.130238 -79.2 
L 388.44761 -79.2 
L 390.764982 -79.2 
L 393.082354 -79.2 
L 395.399726 -79.2 
L 397.717098 -79.2 
L 400.03447 -79.2 
L 402.351842 -79.2 
L 404.669214 -79.2 
L 406.986586 -79.2 
L 409.303958 -79.2 
L 411.62133 -79.2 
L 413.938702 -79.2 
L 416.256074 -79.2 
L 418.573446 -79.2 
L 420.890818 -79.2 
L 423.20819 -79.2 
L 425.525562 -79.2 
L 427.842934 -79.2 
L 430.160306 -79.2 
L 432.477678 -79.2 
L 434.79505 -79.2 
L 437.112422 -79.2 
L 439.429794 -79.2 
L 441.747166 -79.2 
L 444.064538 -79.2 
L 446.38191 -79.2 
L 448.699282 -79.2 
L 451.016654 -79.2 
L 453.334025 -79.2 
L 455.651397 -79.2 
L 457.968769 -79.2 
L 460.286141 -79.2 
L 462.603513 -79.2 
L 464.920885 -79.2 
L 467.238257 -79.2 
L 469.555629 -79.2 
L 471.873001 -79.2 
L 474.190373 -79.2 
L 476.507745 -79.2 
L 478.825117 -79.2 
L 481.142489 -79.2 
L 483.459861 -79.2 
L 485.777233 -79.2 
L 488.094605 -79.2 
L 490.411977 -79.2 
L 492.729349 -79.2 
L 495.046721 -79.2 
L 497.364093 -79.2 
L 499.681465 -79.2 
L 501.998837 -79.2 
L 504.316209 -79.2 
L 506.633581 -79.2 
L 508.950953 -79.2 
L 511.268325 -79.2 
L 513.585697 -79.2 
L 515.903069 -79.2 
L 518.220441 -79.2 
L 520.537813 -79.2 
L 522.855185 -79.2 
L 525.172557 -79.2 
L 527.489929 -79.2 
L 529.807301 -79.2 
L 532.124673 -79.2 
L 534.442045 -79.2 
L 536.759417 -79.2 
L 539.076789 -79.2 
L 541.394161 -79.2 
L 543.711533 -79.2 
L 546.028905 -79.2 
L 548.346277 -79.2 
L 550.663649 -79.2 
L 552.981021 -79.2 
L 555.298393 -79.2 
L 557.615765 -79.2 
L 559.933137 -79.2 
L 562.250509 -79.2 
L 564.567881 -79.2 
L 566.885253 -79.2 
L 569.202625 -79.2 
L 571.519997 -79.2 
L 573.837369 -79.2 
L 576.154741 -79.2 
L 578.472113 -79.2 
L 580.789485 -79.2 
L 583.106857 -79.2 
L 585.424229 -79.2 
L 587.741601 -79.2 
L 590.058973 -79.2 
L 592.376345 -79.2 
L 594.693717 -79.2 
L 597.011089 -79.2 
L 599.32846 -79.2 
L 601.645832 -79.2 
L 603.963204 -79.2 
L 606.280576 -79.2 
L 608.597948 -79.2 
L 610.91532 -79.2 
L 613.232692 -79.2 
L 615.550064 -79.2 
L 617.867436 -79.2 
L 620.184808 -79.2 
L 622.50218 -79.2 
L 624.819552 -79.2 
L 627.136924 -79.2 
L 629.454296 -79.2 
L 631.771668 -79.2 
L 634.08904 -79.2 
L 636.406412 -79.2 
L 638.723784 -79.2 
L 641.041156 -79.2 
L 643.358528 -79.2 
L 645.6759 -79.2 
L 647.993272 -79.2 
L 650.310644 -79.2 
L 652.628016 -79.2 
L 654.945388 -79.2 
L 657.26276 -79.2 
L 659.580132 -79.2 
L 661.897504 -79.2 
L 664.214876 -79.2 
L 664.214876 -79.200694 
L 664.214876 -79.200694 
L 661.897504 -79.202543 
L 659.580132 -79.20747 
L 657.26276 -79.217607 
L 654.945388 -79.233296 
L 652.628016 -79.250533 
L 650.310644 -79.261652 
L 647.993272 -79.26096 
L 645.6759 -79.250735 
L 643.358528 -79.24117 
L 641.041156 -79.243893 
L 638.723784 -79.263975 
L 636.406412 -79.294838 
L 634.08904 -79.319942 
L 631.771668 -79.323341 
L 629.454296 -79.302182 
L 627.136924 -79.268593 
L 624.819552 -79.239191 
L 622.50218 -79.224241 
L 620.184808 -79.225304 
L 617.867436 -79.237923 
L 615.550064 -79.25381 
L 613.232692 -79.263762 
L 610.91532 -79.263366 
L 608.597948 -79.257022 
L 606.280576 -79.254484 
L 603.963204 -79.262529 
L 601.645832 -79.280814 
L 599.32846 -79.305638 
L 597.011089 -79.334799 
L 594.693717 -79.365989 
L 592.376345 -79.392344 
L 590.058973 -79.40437 
L 587.741601 -79.397484 
L 585.424229 -79.37586 
L 583.106857 -79.34986 
L 580.789485 -79.331315 
L 578.472113 -79.327919 
L 576.154741 -79.337802 
L 573.837369 -79.352043 
L 571.519997 -79.36836 
L 569.202625 -79.401521 
L 566.885253 -79.472917 
L 564.567881 -79.585876 
L 562.250509 -79.71385 
L 559.933137 -79.814554 
L 557.615765 -79.853652 
L 555.298393 -79.818663 
L 552.981021 -79.723112 
L 550.663649 -79.604255 
L 548.346277 -79.508896 
L 546.028905 -79.471174 
L 543.711533 -79.499088 
L 541.394161 -79.576553 
L 539.076789 -79.674607 
L 536.759417 -79.76993 
L 534.442045 -79.868644 
L 532.124673 -80.012336 
L 529.807301 -80.238869 
L 527.489929 -80.521306 
L 525.172557 -80.76011 
L 522.855185 -80.8591 
L 520.537813 -80.809298 
L 518.220441 -80.689649 
L 515.903069 -80.595057 
L 513.585697 -80.573422 
L 511.268325 -80.614519 
L 508.950953 -80.671828 
L 506.633581 -80.698221 
L 504.316209 -80.69269 
L 501.998837 -80.723428 
L 499.681465 -80.872453 
L 497.364093 -81.126768 
L 495.046721 -81.340807 
L 492.729349 -81.344417 
L 490.411977 -81.094799 
L 488.094605 -80.706751 
L 485.777233 -80.340354 
L 483.459861 -80.079901 
L 481.142489 -79.915072 
L 478.825117 -79.803765 
L 476.507745 -79.729392 
L 474.190373 -79.710914 
L 471.873001 -79.785116 
L 469.555629 -79.981125 
L 467.238257 -80.286374 
L 464.920885 -80.621288 
L 462.603513 -80.864922 
L 460.286141 -80.934305 
L 457.968769 -80.846009 
L 455.651397 -80.692334 
L 453.334025 -80.558211 
L 451.016654 -80.467325 
L 448.699282 -80.400757 
L 446.38191 -80.347023 
L 444.064538 -80.330346 
L 441.747166 -80.414373 
L 439.429794 -80.686214 
L 437.112422 -81.19632 
L 434.79505 -81.871965 
L 432.477678 -82.504509 
L 430.160306 -82.871327 
L 427.842934 -82.894528 
L 425.525562 -82.675531 
L 423.20819 -82.380928 
L 420.890818 -82.114781 
L 418.573446 -81.894072 
L 416.256074 -81.703092 
L 413.938702 -81.547446 
L 411.62133 -81.480973 
L 409.303958 -81.590011 
L 406.986586 -81.908846 
L 404.669214 -82.328702 
L 402.351842 -82.63981 
L 400.03447 -82.721689 
L 397.717098 -82.683072 
L 395.399726 -82.765105 
L 393.082354 -83.095587 
L 390.764982 -83.565207 
L 388.44761 -83.949868 
L 386.130238 -84.12772 
L 383.812866 -84.172686 
L 381.495494 -84.289386 
L 379.178122 -84.70054 
L 376.86075 -85.529149 
L 374.543378 -86.653733 
L 372.226006 -87.650432 
L 369.908634 -88.008899 
L 367.591262 -87.52836 
L 365.27389 -86.499185 
L 362.956518 -85.476733 
L 360.639146 -84.90518 
L 358.321774 -84.915361 
L 356.004402 -85.350861 
L 353.68703 -85.926094 
L 351.369658 -86.442695 
L 349.052286 -86.968543 
L 346.734914 -87.820018 
L 344.417542 -89.281658 
L 342.10017 -91.261648 
L 339.782798 -93.23505 
L 337.465426 -94.598411 
L 335.148054 -95.10745 
L 332.830682 -94.972231 
L 330.51331 -94.609446 
L 328.195938 -94.387473 
L 325.878566 -94.560647 
L 323.561194 -95.313217 
L 321.243822 -96.756564 
L 318.92645 -98.84668 
L 316.609078 -101.35676 
L 314.291706 -104.006728 
L 311.974334 -106.610248 
L 309.656962 -109.076861 
L 307.339591 -111.40738 
L 305.022219 -113.809658 
L 302.704847 -116.654154 
L 300.387475 -120.083029 
L 298.070103 -123.695692 
L 295.752731 -126.742695 
L 293.435359 -128.585394 
L 291.117987 -128.949731 
L 288.800615 -127.997036 
L 286.483243 -126.481092 
L 284.165871 -125.87009 
L 281.848499 -128.027166 
L 279.531127 -134.332267 
L 277.213755 -144.771771 
L 274.896383 -157.895031 
L 272.579011 -171.889733 
L 270.261639 -185.888422 
L 267.944267 -200.460242 
L 265.626895 -217.076756 
L 263.309523 -237.03219 
L 260.992151 -260.477983 
L 258.674779 -286.177623 
L 256.357407 -312.349736 
L 254.040035 -338.205028 
L 251.722663 -364.75813 
L 249.405291 -393.805527 
L 247.087919 -426.057463 
L 244.770547 -460.654314 
L 242.453175 -496.500519 
L 240.135803 -533.06837 
L 237.818431 -568.552824 
L 235.501059 -596.841038 
L 233.183687 -607.2 
L 230.866315 -588.469772 
L 228.548943 -535.336719 
L 226.231571 -452.527466 
L 223.914199 -354.297552 
L 221.596827 -259.171659 
L 219.279455 -182.415128 
L 216.962083 -130.553597 
L 214.644711 -101.197442 
L 212.327339 -87.27286 
L 210.009967 -81.731087 
L 207.692595 -79.876669 
L 205.375223 -79.353908 
L 203.057851 -79.229679 
z
" style="stroke: #00708d"/>
    </defs>
    <g clip-path="url(#p6b1c1d025f)">
     <use xlink:href="#m4c268ce87e" x="0" y="720" style="fill: #00708d; fill-opacity: 0.5; stroke: #00708d"/>
    </g>
   </g>
   <g id="matplotlib.axis_1">
    <g id="xtick_1">
     <g id="line2d_1">
      <path d="M 215.143222 640.8 
L 215.143222 86.4 
" clip-path="url(#p6b1c1d025f)" style="fill: none; stroke: #808080; stroke-opacity: 0.9; stroke-width: 0.8; stroke-linecap: square"/>
     </g>
     <g id="line2d_2">
      <defs>
       <path id="m458bdbb619" d="M 0 0 
L 0 3.5 
" style="stroke: #000000; stroke-width: 0.8"/>
      </defs>
      <g>
       <use xlink:href="#m458bdbb619" x="215.143222" y="640.8" style="stroke: #000000; stroke-width: 0.8"/>
      </g>
     </g>
     <g id="text_1">
      <!-- 0 -->
      <g transform="translate(211.961972 655.398438) scale(0.1 -0.1)">
       <defs>
        <path id="DejaVuSans-30" d="M 2034 4250 
Q 1547 4250 1301 3770 
Q 1056 3291 1056 2328 
Q 1056 1369 1301 889 
Q 1547 409 2034 409 
Q 2525 409 2770 889 
Q 3016 1369 3016 2328 
Q 3016 3291 2770 3770 
Q 2525 4250 2034 4250 
z
M 2034 4750 
Q 2819 4750 3233 4129 
Q 3647 3509 3647 2328 
Q 3647 1150 3233 529 
Q 2819 -91 2034 -91 
Q 1250 -91 836 529 
Q 422 1150 422 2328 
Q 422 3509 836 4129 
Q 1250 4750 2034 4750 
z
" transform="scale(0.015625)"/>
       </defs>
       <use xlink:href="#DejaVuSans-30"/>
      </g>
     </g>
    </g>
    <g id="xtick_2">
     <g id="line2d_3">
      <path d="M 277.180647 640.8 
L 277.180647 86.4 
" clip-path="url(#p6b1c1d025f)" style="fill: none; stroke: #808080; stroke-opacity: 0.9; stroke-width: 0.8; stroke-linecap: square"/>
     </g>
     <g id="line2d_4">
      <g>
       <use xlink:href="#m458bdbb619" x="277.180647" y="640.8" style="stroke: #000000; stroke-width: 0.8"/>
      </g>
     </g>
     <g id="text_2">
      <!-- 1 -->
      <g transform="translate(273.999397 655.398438) scale(0.1 -0.1)">
       <defs>
        <path id="DejaVuSans-31" d="M 794 531 
L 1825 531 
L 1825 4091 
L 703 3866 
L 703 4441 
L 1819 4666 
L 2450 4666 
L 2450 531 
L 3481 531 
L 3481 0 
L 794 0 
L 794 531 
z
" transform="scale(0.015625)"/>
       </defs>
       <use xlink:href="#DejaVuSans-31"/>
      </g>
     </g>
    </g>
    <g id="xtick_3">
     <g id="line2d_5">
      <path d="M 339.218071 640.8 
L 339.218071 86.4 
" clip-path="url(#p6b1c1d025f)" style="fill: none; stroke: #808080; stroke-opacity: 0.9; stroke-width: 0.8; stroke-linecap: square"/>
     </g>
     <g id="line2d_6">
      <g>
       <use xlink:href="#m458bdbb619" x="339.218071" y="640.8" style="stroke: #000000; stroke-width: 0.8"/>
      </g>
     </g>
     <g id="text_3">
      <!-- 2 -->
      <g transform="translate(336.036821 655.398438) scale(0.1 -0.1)">
       <defs>
        <path id="DejaVuSans-32" d="M 1228 531 
L 3431 531 
L 3431 0 
L 469 0 
L 469 531 
Q 828 903 1448 1529 
Q 2069 2156 2228 2338 
Q 2531 2678 2651 2914 
Q 2772 3150 2772 3378 
Q 2772 3750 2511 3984 
Q 2250 4219 1831 4219 
Q 1534 4219 1204 4116 
Q 875 4013 500 3803 
L 500 4441 
Q 881 4594 1212 4672 
Q 1544 4750 1819 4750 
Q 2544 4750 2975 4387 
Q 3406 4025 3406 3419 
Q 3406 3131 3298 2873 
Q 3191 2616 2906 2266 
Q 2828 2175 2409 1742 
Q 1991 1309 1228 531 
z
" transform="scale(0.015625)"/>
       </defs>
       <use xlink:href="#DejaVuSans-32"/>
      </g>
     </g>
    </g>
    <g id="xtick_4">
     <g id="line2d_7">
      <path d="M 401.255496 640.8 
L 401.255496 86.4 
" clip-path="url(#p6b1c1d025f)" style="fill: none; stroke: #808080; stroke-opacity: 0.9; stroke-width: 0.8; stroke-linecap: square"/>
     </g>
     <g id="line2d_8">
      <g>
       <use xlink:href="#m458bdbb619" x="401.255496" y="640.8" style="stroke: #000000; stroke-width: 0.8"/>
      </g>
     </g>
     <g id="text_4">
      <!-- 3 -->
      <g transform="translate(398.074246 655.398438) scale(0.1 -0.1)">
       <defs>
        <path id="DejaVuSans-33" d="M 2597 2516 
Q 3050 2419 3304 2112 
Q 3559 1806 3559 1356 
Q 3559 666 3084 287 
Q 2609 -91 1734 -91 
Q 1441 -91 1130 -33 
Q 819 25 488 141 
L 488 750 
Q 750 597 1062 519 
Q 1375 441 1716 441 
Q 2309 441 2620 675 
Q 2931 909 2931 1356 
Q 2931 1769 2642 2001 
Q 2353 2234 1838 2234 
L 1294 2234 
L 1294 2753 
L 1863 2753 
Q 2328 2753 2575 2939 
Q 2822 3125 2822 3475 
Q 2822 3834 2567 4026 
Q 2313 4219 1838 4219 
Q 1578 4219 1281 4162 
Q 984 4106 628 3988 
L 628 4550 
Q 988 4650 1302 4700 
Q 1616 4750 1894 4750 
Q 2613 4750 3031 4423 
Q 3450 4097 3450 3541 
Q 3450 3153 3228 2886 
Q 3006 2619 2597 2516 
z
" transform="scale(0.015625)"/>
       </defs>
       <use xlink:href="#DejaVuSans-33"/>
      </g>
     </g>
    </g>
    <g id="xtick_5">
     <g id="line2d_9">
      <path d="M 463.29292 640.8 
L 463.29292 86.4 
" clip-path="url(#p6b1c1d025f)" style="fill: none; stroke: #808080; stroke-opacity: 0.9; stroke-width: 0.8; stroke-linecap: square"/>
     </g>
     <g id="line2d_10">
      <g>
       <use xlink:href="#m458bdbb619" x="463.29292" y="640.8" style="stroke: #000000; stroke-width: 0.8"/>
      </g>
     </g>
     <g id="text_5">
      <!-- 4 -->
      <g transform="translate(460.11167 655.398438) scale(0.1 -0.1)">
       <defs>
        <path id="DejaVuSans-34" d="M 2419 4116 
L 825 1625 
L 2419 1625 
L 2419 4116 
z
M 2253 4666 
L 3047 4666 
L 3047 1625 
L 3713 1625 
L 3713 1100 
L 3047 1100 
L 3047 0 
L 2419 0 
L 2419 1100 
L 313 1100 
L 313 1709 
L 2253 4666 
z
" transform="scale(0.015625)"/>
       </defs>
       <use xlink:href="#DejaVuSans-34"/>
      </g>
     </g>
    </g>
    <g id="xtick_6">
     <g id="line2d_11">
      <path d="M 525.330345 640.8 
L 525.330345 86.4 
" clip-path="url(#p6b1c1d025f)" style="fill: none; stroke: #808080; stroke-opacity: 0.9; stroke-width: 0.8; stroke-linecap: square"/>
     </g>
     <g id="line2d_12">
      <g>
       <use xlink:href="#m458bdbb619" x="525.330345" y="640.8" style="stroke: #000000; stroke-width: 0.8"/>
      </g>
     </g>
     <g id="text_6">
      <!-- 5 -->
      <g transform="translate(522.149095 655.398438) scale(0.1 -0.1)">
       <defs>
        <path id="DejaVuSans-35" d="M 691 4666 
L 3169 4666 
L 3169 4134 
L 1269 4134 
L 1269 2991 
Q 1406 3038 1543 3061 
Q 1681 3084 1819 3084 
Q 2600 3084 3056 2656 
Q 3513 2228 3513 1497 
Q 3513 744 3044 326 
Q 2575 -91 1722 -91 
Q 1428 -91 1123 -41 
Q 819 9 494 109 
L 494 744 
Q 775 591 1075 516 
Q 1375 441 1709 441 
Q 2250 441 2565 725 
Q 2881 1009 2881 1497 
Q 2881 1984 2565 2268 
Q 2250 2553 1709 2553 
Q 1456 2553 1204 2497 
Q 953 2441 691 2322 
L 691 4666 
z
" transform="scale(0.015625)"/>
       </defs>
       <use xlink:href="#DejaVuSans-35"/>
      </g>
     </g>
    </g>
    <g id="xtick_7">
     <g id="line2d_13">
      <path d="M 587.367769 640.8 
L 587.367769 86.4 
" clip-path="url(#p6b1c1d025f)" style="fill: none; stroke: #808080; stroke-opacity: 0.9; stroke-width: 0.8; stroke-linecap: square"/>
     </g>
     <g id="line2d_14">
      <g>
       <use xlink:href="#m458bdbb619" x="587.367769" y="640.8" style="stroke: #000000; stroke-width: 0.8"/>
      </g>
     </g>
     <g id="text_7">
      <!-- 6 -->
      <g transform="translate(584.186519 655.398438) scale(0.1 -0.1)">
       <defs>
        <path id="DejaVuSans-36" d="M 2113 2584 
Q 1688 2584 1439 2293 
Q 1191 2003 1191 1497 
Q 1191 994 1439 701 
Q 1688 409 2113 409 
Q 2538 409 2786 701 
Q 3034 994 3034 1497 
Q 3034 2003 2786 2293 
Q 2538 2584 2113 2584 
z
M 3366 4563 
L 3366 3988 
Q 3128 4100 2886 4159 
Q 2644 4219 2406 4219 
Q 1781 4219 1451 3797 
Q 1122 3375 1075 2522 
Q 1259 2794 1537 2939 
Q 1816 3084 2150 3084 
Q 2853 3084 3261 2657 
Q 3669 2231 3669 1497 
Q 3669 778 3244 343 
Q 2819 -91 2113 -91 
Q 1303 -91 875 529 
Q 447 1150 447 2328 
Q 447 3434 972 4092 
Q 1497 4750 2381 4750 
Q 2619 4750 2861 4703 
Q 3103 4656 3366 4563 
z
" transform="scale(0.015625)"/>
       </defs>
       <use xlink:href="#DejaVuSans-36"/>
      </g>
     </g>
    </g>
    <g id="xtick_8">
     <g id="line2d_15">
      <path d="M 649.405194 640.8 
L 649.405194 86.4 
" clip-path="url(#p6b1c1d025f)" style="fill: none; stroke: #808080; stroke-opacity: 0.9; stroke-width: 0.8; stroke-linecap: square"/>
     </g>
     <g id="line2d_16">
      <g>
       <use xlink:href="#m458bdbb619" x="649.405194" y="640.8" style="stroke: #000000; stroke-width: 0.8"/>
      </g>
     </g>
     <g id="text_8">
      <!-- 7 -->
      <g transform="translate(646.223944 655.398438) scale(0.1 -0.1)">
       <defs>
        <path id="DejaVuSans-37" d="M 525 4666 
L 3525 4666 
L 3525 4397 
L 1831 0 
L 1172 0 
L 2766 4134 
L 525 4134 
L 525 4666 
z
" transform="scale(0.015625)"/>
       </defs>
       <use xlink:href="#DejaVuSans-37"/>
      </g>
     </g>
    </g>
    <g id="text_9">
     <!-- Valor -->
     <g transform="translate(417.255348 671.356094) scale(0.13 -0.13)">
      <defs>
       <path id="DejaVuSans-56" d="M 1831 0 
L 50 4666 
L 709 4666 
L 2188 738 
L 3669 4666 
L 4325 4666 
L 2547 0 
L 1831 0 
z
" transform="scale(0.015625)"/>
       <path id="DejaVuSans-61" d="M 2194 1759 
Q 1497 1759 1228 1600 
Q 959 1441 959 1056 
Q 959 750 1161 570 
Q 1363 391 1709 391 
Q 2188 391 2477 730 
Q 2766 1069 2766 1631 
L 2766 1759 
L 2194 1759 
z
M 3341 1997 
L 3341 0 
L 2766 0 
L 2766 531 
Q 2569 213 2275 61 
Q 1981 -91 1556 -91 
Q 1019 -91 701 211 
Q 384 513 384 1019 
Q 384 1609 779 1909 
Q 1175 2209 1959 2209 
L 2766 2209 
L 2766 2266 
Q 2766 2663 2505 2880 
Q 2244 3097 1772 3097 
Q 1472 3097 1187 3025 
Q 903 2953 641 2809 
L 641 3341 
Q 956 3463 1253 3523 
Q 1550 3584 1831 3584 
Q 2591 3584 2966 3190 
Q 3341 2797 3341 1997 
z
" transform="scale(0.015625)"/>
       <path id="DejaVuSans-6c" d="M 603 4863 
L 1178 4863 
L 1178 0 
L 603 0 
L 603 4863 
z
" transform="scale(0.015625)"/>
       <path id="DejaVuSans-6f" d="M 1959 3097 
Q 1497 3097 1228 2736 
Q 959 2375 959 1747 
Q 959 1119 1226 758 
Q 1494 397 1959 397 
Q 2419 397 2687 759 
Q 2956 1122 2956 1747 
Q 2956 2369 2687 2733 
Q 2419 3097 1959 3097 
z
M 1959 3584 
Q 2709 3584 3137 3096 
Q 3566 2609 3566 1747 
Q 3566 888 3137 398 
Q 2709 -91 1959 -91 
Q 1206 -91 779 398 
Q 353 888 353 1747 
Q 353 2609 779 3096 
Q 1206 3584 1959 3584 
z
" transform="scale(0.015625)"/>
       <path id="DejaVuSans-72" d="M 2631 2963 
Q 2534 3019 2420 3045 
Q 2306 3072 2169 3072 
Q 1681 3072 1420 2755 
Q 1159 2438 1159 1844 
L 1159 0 
L 581 0 
L 581 3500 
L 1159 3500 
L 1159 2956 
Q 1341 3275 1631 3429 
Q 1922 3584 2338 3584 
Q 2397 3584 2469 3576 
Q 2541 3569 2628 3553 
L 2631 2963 
z
" transform="scale(0.015625)"/>
      </defs>
      <use xlink:href="#DejaVuSans-56"/>
      <use xlink:href="#DejaVuSans-61" transform="translate(60.658203 0)"/>
      <use xlink:href="#DejaVuSans-6c" transform="translate(121.9375 0)"/>
      <use xlink:href="#DejaVuSans-6f" transform="translate(149.720703 0)"/>
      <use xlink:href="#DejaVuSans-72" transform="translate(210.902344 0)"/>
     </g>
    </g>
    <g id="text_10">
     <!-- 1e6 -->
     <g transform="translate(668.394602 668.076563) scale(0.1 -0.1)">
      <defs>
       <path id="DejaVuSans-65" d="M 3597 1894 
L 3597 1613 
L 953 1613 
Q 991 1019 1311 708 
Q 1631 397 2203 397 
Q 2534 397 2845 478 
Q 3156 559 3463 722 
L 3463 178 
Q 3153 47 2828 -22 
Q 2503 -91 2169 -91 
Q 1331 -91 842 396 
Q 353 884 353 1716 
Q 353 2575 817 3079 
Q 1281 3584 2069 3584 
Q 2775 3584 3186 3129 
Q 3597 2675 3597 1894 
z
M 3022 2063 
Q 3016 2534 2758 2815 
Q 2500 3097 2075 3097 
Q 1594 3097 1305 2825 
Q 1016 2553 972 2059 
L 3022 2063 
z
" transform="scale(0.015625)"/>
      </defs>
      <use xlink:href="#DejaVuSans-31"/>
      <use xlink:href="#DejaVuSans-65" transform="translate(63.623047 0)"/>
      <use xlink:href="#DejaVuSans-36" transform="translate(125.146484 0)"/>
     </g>
    </g>
   </g>
   <g id="matplotlib.axis_2">
    <g id="ytick_1">
     <g id="line2d_17">
      <path d="M 180 640.8 
L 687.272727 640.8 
" clip-path="url(#p6b1c1d025f)" style="fill: none; stroke: #808080; stroke-opacity: 0.9; stroke-width: 0.8; stroke-linecap: square"/>
     </g>
     <g id="line2d_18">
      <defs>
       <path id="mf3c9f11469" d="M 0 0 
L -3.5 0 
" style="stroke: #000000; stroke-width: 0.8"/>
      </defs>
      <g>
       <use xlink:href="#mf3c9f11469" x="180" y="640.8" style="stroke: #000000; stroke-width: 0.8"/>
      </g>
     </g>
     <g id="text_11">
      <!-- 0.0 -->
      <g transform="translate(157.096875 644.599219) scale(0.1 -0.1)">
       <defs>
        <path id="DejaVuSans-2e" d="M 684 794 
L 1344 794 
L 1344 0 
L 684 0 
L 684 794 
z
" transform="scale(0.015625)"/>
       </defs>
       <use xlink:href="#DejaVuSans-30"/>
       <use xlink:href="#DejaVuSans-2e" transform="translate(63.623047 0)"/>
       <use xlink:href="#DejaVuSans-30" transform="translate(95.410156 0)"/>
      </g>
     </g>
    </g>
    <g id="ytick_2">
     <g id="line2d_19">
      <path d="M 180 577.417654 
L 687.272727 577.417654 
" clip-path="url(#p6b1c1d025f)" style="fill: none; stroke: #808080; stroke-opacity: 0.9; stroke-width: 0.8; stroke-linecap: square"/>
     </g>
     <g id="line2d_20">
      <g>
       <use xlink:href="#mf3c9f11469" x="180" y="577.417654" style="stroke: #000000; stroke-width: 0.8"/>
      </g>
     </g>
     <g id="text_12">
      <!-- 0.2 -->
      <g transform="translate(157.096875 581.216873) scale(0.1 -0.1)">
       <use xlink:href="#DejaVuSans-30"/>
       <use xlink:href="#DejaVuSans-2e" transform="translate(63.623047 0)"/>
       <use xlink:href="#DejaVuSans-32" transform="translate(95.410156 0)"/>
      </g>
     </g>
    </g>
    <g id="ytick_3">
     <g id="line2d_21">
      <path d="M 180 514.035308 
L 687.272727 514.035308 
" clip-path="url(#p6b1c1d025f)" style="fill: none; stroke: #808080; stroke-opacity: 0.9; stroke-width: 0.8; stroke-linecap: square"/>
     </g>
     <g id="line2d_22">
      <g>
       <use xlink:href="#mf3c9f11469" x="180" y="514.035308" style="stroke: #000000; stroke-width: 0.8"/>
      </g>
     </g>
     <g id="text_13">
      <!-- 0.4 -->
      <g transform="translate(157.096875 517.834526) scale(0.1 -0.1)">
       <use xlink:href="#DejaVuSans-30"/>
       <use xlink:href="#DejaVuSans-2e" transform="translate(63.623047 0)"/>
       <use xlink:href="#DejaVuSans-34" transform="translate(95.410156 0)"/>
      </g>
     </g>
    </g>
    <g id="ytick_4">
     <g id="line2d_23">
      <path d="M 180 450.652962 
L 687.272727 450.652962 
" clip-path="url(#p6b1c1d025f)" style="fill: none; stroke: #808080; stroke-opacity: 0.9; stroke-width: 0.8; stroke-linecap: square"/>
     </g>
     <g id="line2d_24">
      <g>
       <use xlink:href="#mf3c9f11469" x="180" y="450.652962" style="stroke: #000000; stroke-width: 0.8"/>
      </g>
     </g>
     <g id="text_14">
      <!-- 0.6 -->
      <g transform="translate(157.096875 454.45218) scale(0.1 -0.1)">
       <use xlink:href="#DejaVuSans-30"/>
       <use xlink:href="#DejaVuSans-2e" transform="translate(63.623047 0)"/>
       <use xlink:href="#DejaVuSans-36" transform="translate(95.410156 0)"/>
      </g>
     </g>
    </g>
    <g id="ytick_5">
     <g id="line2d_25">
      <path d="M 180 387.270615 
L 687.272727 387.270615 
" clip-path="url(#p6b1c1d025f)" style="fill: none; stroke: #808080; stroke-opacity: 0.9; stroke-width: 0.8; stroke-linecap: square"/>
     </g>
     <g id="line2d_26">
      <g>
       <use xlink:href="#mf3c9f11469" x="180" y="387.270615" style="stroke: #000000; stroke-width: 0.8"/>
      </g>
     </g>
     <g id="text_15">
      <!-- 0.8 -->
      <g transform="translate(157.096875 391.069834) scale(0.1 -0.1)">
       <defs>
        <path id="DejaVuSans-38" d="M 2034 2216 
Q 1584 2216 1326 1975 
Q 1069 1734 1069 1313 
Q 1069 891 1326 650 
Q 1584 409 2034 409 
Q 2484 409 2743 651 
Q 3003 894 3003 1313 
Q 3003 1734 2745 1975 
Q 2488 2216 2034 2216 
z
M 1403 2484 
Q 997 2584 770 2862 
Q 544 3141 544 3541 
Q 544 4100 942 4425 
Q 1341 4750 2034 4750 
Q 2731 4750 3128 4425 
Q 3525 4100 3525 3541 
Q 3525 3141 3298 2862 
Q 3072 2584 2669 2484 
Q 3125 2378 3379 2068 
Q 3634 1759 3634 1313 
Q 3634 634 3220 271 
Q 2806 -91 2034 -91 
Q 1263 -91 848 271 
Q 434 634 434 1313 
Q 434 1759 690 2068 
Q 947 2378 1403 2484 
z
M 1172 3481 
Q 1172 3119 1398 2916 
Q 1625 2713 2034 2713 
Q 2441 2713 2670 2916 
Q 2900 3119 2900 3481 
Q 2900 3844 2670 4047 
Q 2441 4250 2034 4250 
Q 1625 4250 1398 4047 
Q 1172 3844 1172 3481 
z
" transform="scale(0.015625)"/>
       </defs>
       <use xlink:href="#DejaVuSans-30"/>
       <use xlink:href="#DejaVuSans-2e" transform="translate(63.623047 0)"/>
       <use xlink:href="#DejaVuSans-38" transform="translate(95.410156 0)"/>
      </g>
     </g>
    </g>
    <g id="ytick_6">
     <g id="line2d_27">
      <path d="M 180 323.888269 
L 687.272727 323.888269 
" clip-path="url(#p6b1c1d025f)" style="fill: none; stroke: #808080; stroke-opacity: 0.9; stroke-width: 0.8; stroke-linecap: square"/>
     </g>
     <g id="line2d_28">
      <g>
       <use xlink:href="#mf3c9f11469" x="180" y="323.888269" style="stroke: #000000; stroke-width: 0.8"/>
      </g>
     </g>
     <g id="text_16">
      <!-- 1.0 -->
      <g transform="translate(157.096875 327.687488) scale(0.1 -0.1)">
       <use xlink:href="#DejaVuSans-31"/>
       <use xlink:href="#DejaVuSans-2e" transform="translate(63.623047 0)"/>
       <use xlink:href="#DejaVuSans-30" transform="translate(95.410156 0)"/>
      </g>
     </g>
    </g>
    <g id="ytick_7">
     <g id="line2d_29">
      <path d="M 180 260.505923 
L 687.272727 260.505923 
" clip-path="url(#p6b1c1d025f)" style="fill: none; stroke: #808080; stroke-opacity: 0.9; stroke-width: 0.8; stroke-linecap: square"/>
     </g>
     <g id="line2d_30">
      <g>
       <use xlink:href="#mf3c9f11469" x="180" y="260.505923" style="stroke: #000000; stroke-width: 0.8"/>
      </g>
     </g>
     <g id="text_17">
      <!-- 1.2 -->
      <g transform="translate(157.096875 264.305142) scale(0.1 -0.1)">
       <use xlink:href="#DejaVuSans-31"/>
       <use xlink:href="#DejaVuSans-2e" transform="translate(63.623047 0)"/>
       <use xlink:href="#DejaVuSans-32" transform="translate(95.410156 0)"/>
      </g>
     </g>
    </g>
    <g id="ytick_8">
     <g id="line2d_31">
      <path d="M 180 197.123577 
L 687.272727 197.123577 
" clip-path="url(#p6b1c1d025f)" style="fill: none; stroke: #808080; stroke-opacity: 0.9; stroke-width: 0.8; stroke-linecap: square"/>
     </g>
     <g id="line2d_32">
      <g>
       <use xlink:href="#mf3c9f11469" x="180" y="197.123577" style="stroke: #000000; stroke-width: 0.8"/>
      </g>
     </g>
     <g id="text_18">
      <!-- 1.4 -->
      <g transform="translate(157.096875 200.922796) scale(0.1 -0.1)">
       <use xlink:href="#DejaVuSans-31"/>
       <use xlink:href="#DejaVuSans-2e" transform="translate(63.623047 0)"/>
       <use xlink:href="#DejaVuSans-34" transform="translate(95.410156 0)"/>
      </g>
     </g>
    </g>
    <g id="ytick_9">
     <g id="line2d_33">
      <path d="M 180 133.741231 
L 687.272727 133.741231 
" clip-path="url(#p6b1c1d025f)" style="fill: none; stroke: #808080; stroke-opacity: 0.9; stroke-width: 0.8; stroke-linecap: square"/>
     </g>
     <g id="line2d_34">
      <g>
       <use xlink:href="#mf3c9f11469" x="180" y="133.741231" style="stroke: #000000; stroke-width: 0.8"/>
      </g>
     </g>
     <g id="text_19">
      <!-- 1.6 -->
      <g transform="translate(157.096875 137.54045) scale(0.1 -0.1)">
       <use xlink:href="#DejaVuSans-31"/>
       <use xlink:href="#DejaVuSans-2e" transform="translate(63.623047 0)"/>
       <use xlink:href="#DejaVuSans-36" transform="translate(95.410156 0)"/>
      </g>
     </g>
    </g>
    <g id="text_20">
     <!-- Densidade -->
     <g transform="translate(150.393281 398.151562) rotate(-90) scale(0.13 -0.13)">
      <defs>
       <path id="DejaVuSans-44" d="M 1259 4147 
L 1259 519 
L 2022 519 
Q 2988 519 3436 956 
Q 3884 1394 3884 2338 
Q 3884 3275 3436 3711 
Q 2988 4147 2022 4147 
L 1259 4147 
z
M 628 4666 
L 1925 4666 
Q 3281 4666 3915 4102 
Q 4550 3538 4550 2338 
Q 4550 1131 3912 565 
Q 3275 0 1925 0 
L 628 0 
L 628 4666 
z
" transform="scale(0.015625)"/>
       <path id="DejaVuSans-6e" d="M 3513 2113 
L 3513 0 
L 2938 0 
L 2938 2094 
Q 2938 2591 2744 2837 
Q 2550 3084 2163 3084 
Q 1697 3084 1428 2787 
Q 1159 2491 1159 1978 
L 1159 0 
L 581 0 
L 581 3500 
L 1159 3500 
L 1159 2956 
Q 1366 3272 1645 3428 
Q 1925 3584 2291 3584 
Q 2894 3584 3203 3211 
Q 3513 2838 3513 2113 
z
" transform="scale(0.015625)"/>
       <path id="DejaVuSans-73" d="M 2834 3397 
L 2834 2853 
Q 2591 2978 2328 3040 
Q 2066 3103 1784 3103 
Q 1356 3103 1142 2972 
Q 928 2841 928 2578 
Q 928 2378 1081 2264 
Q 1234 2150 1697 2047 
L 1894 2003 
Q 2506 1872 2764 1633 
Q 3022 1394 3022 966 
Q 3022 478 2636 193 
Q 2250 -91 1575 -91 
Q 1294 -91 989 -36 
Q 684 19 347 128 
L 347 722 
Q 666 556 975 473 
Q 1284 391 1588 391 
Q 1994 391 2212 530 
Q 2431 669 2431 922 
Q 2431 1156 2273 1281 
Q 2116 1406 1581 1522 
L 1381 1569 
Q 847 1681 609 1914 
Q 372 2147 372 2553 
Q 372 3047 722 3315 
Q 1072 3584 1716 3584 
Q 2034 3584 2315 3537 
Q 2597 3491 2834 3397 
z
" transform="scale(0.015625)"/>
       <path id="DejaVuSans-69" d="M 603 3500 
L 1178 3500 
L 1178 0 
L 603 0 
L 603 3500 
z
M 603 4863 
L 1178 4863 
L 1178 4134 
L 603 4134 
L 603 4863 
z
" transform="scale(0.015625)"/>
       <path id="DejaVuSans-64" d="M 2906 2969 
L 2906 4863 
L 3481 4863 
L 3481 0 
L 2906 0 
L 2906 525 
Q 2725 213 2448 61 
Q 2172 -91 1784 -91 
Q 1150 -91 751 415 
Q 353 922 353 1747 
Q 353 2572 751 3078 
Q 1150 3584 1784 3584 
Q 2172 3584 2448 3432 
Q 2725 3281 2906 2969 
z
M 947 1747 
Q 947 1113 1208 752 
Q 1469 391 1925 391 
Q 2381 391 2643 752 
Q 2906 1113 2906 1747 
Q 2906 2381 2643 2742 
Q 2381 3103 1925 3103 
Q 1469 3103 1208 2742 
Q 947 2381 947 1747 
z
" transform="scale(0.015625)"/>
      </defs>
      <use xlink:href="#DejaVuSans-44"/>
      <use xlink:href="#DejaVuSans-65" transform="translate(77.001953 0)"/>
      <use xlink:href="#DejaVuSans-6e" transform="translate(138.525391 0)"/>
      <use xlink:href="#DejaVuSans-73" transform="translate(201.904297 0)"/>
      <use xlink:href="#DejaVuSans-69" transform="translate(254.003906 0)"/>
      <use xlink:href="#DejaVuSans-64" transform="translate(281.787109 0)"/>
      <use xlink:href="#DejaVuSans-61" transform="translate(345.263672 0)"/>
      <use xlink:href="#DejaVuSans-64" transform="translate(406.542969 0)"/>
      <use xlink:href="#DejaVuSans-65" transform="translate(470.019531 0)"/>
     </g>
    </g>
    <g id="text_21">
     <!-- 1e−6 -->
     <g transform="translate(180 83.4) scale(0.1 -0.1)">
      <defs>
       <path id="DejaVuSans-2212" d="M 678 2272 
L 4684 2272 
L 4684 1741 
L 678 1741 
L 678 2272 
z
" transform="scale(0.015625)"/>
      </defs>
      <use xlink:href="#DejaVuSans-31"/>
      <use xlink:href="#DejaVuSans-65" transform="translate(63.623047 0)"/>
      <use xlink:href="#DejaVuSans-2212" transform="translate(125.146484 0)"/>
      <use xlink:href="#DejaVuSans-36" transform="translate(208.935547 0)"/>
     </g>
    </g>
   </g>
   <g id="patch_3">
    <path d="M 180 640.8 
L 180 86.4 
" style="fill: none; stroke: #000000; stroke-width: 0.8; stroke-linejoin: miter; stroke-linecap: square"/>
   </g>
   <g id="patch_4">
    <path d="M 687.272727 640.8 
L 687.272727 86.4 
" style="fill: none; stroke: #000000; stroke-width: 0.8; stroke-linejoin: miter; stroke-linecap: square"/>
   </g>
   <g id="patch_5">
    <path d="M 180 640.8 
L 687.272727 640.8 
" style="fill: none; stroke: #000000; stroke-width: 0.8; stroke-linejoin: miter; stroke-linecap: square"/>
   </g>
   <g id="patch_6">
    <path d="M 180 86.4 
L 687.272727 86.4 
" style="fill: none; stroke: #000000; stroke-width: 0.8; stroke-linejoin: miter; stroke-linecap: square"/>
   </g>
  </g>
  <g id="axes_2">
   <g id="patch_7">
    <path d="M 788.727273 640.8 
L 1296 640.8 
L 1296 86.4 
L 788.727273 86.4 
z
" style="fill: #ffffff"/>
   </g>
   <g id="FillBetweenPolyCollection_2">
    <defs>
     <path id="m5e0a817c9f" d="M 811.785124 -79.202527 
L 811.785124 -79.2 
L 814.102496 -79.2 
L 816.419868 -79.2 
L 818.73724 -79.2 
L 821.054612 -79.2 
L 823.371984 -79.2 
L 825.689356 -79.2 
L 828.006728 -79.2 
L 830.3241 -79.2 
L 832.641472 -79.2 
L 834.958844 -79.2 
L 837.276216 -79.2 
L 839.593588 -79.2 
L 841.91096 -79.2 
L 844.228332 -79.2 
L 846.545704 -79.2 
L 848.863076 -79.2 
L 851.180448 -79.2 
L 853.49782 -79.2 
L 855.815192 -79.2 
L 858.132564 -79.2 
L 860.449936 -79.2 
L 862.767308 -79.2 
L 865.08468 -79.2 
L 867.402052 -79.2 
L 869.719424 -79.2 
L 872.036796 -79.2 
L 874.354168 -79.2 
L 876.67154 -79.2 
L 878.988911 -79.2 
L 881.306283 -79.2 
L 883.623655 -79.2 
L 885.941027 -79.2 
L 888.258399 -79.2 
L 890.575771 -79.2 
L 892.893143 -79.2 
L 895.210515 -79.2 
L 897.527887 -79.2 
L 899.845259 -79.2 
L 902.162631 -79.2 
L 904.480003 -79.2 
L 906.797375 -79.2 
L 909.114747 -79.2 
L 911.432119 -79.2 
L 913.749491 -79.2 
L 916.066863 -79.2 
L 918.384235 -79.2 
L 920.701607 -79.2 
L 923.018979 -79.2 
L 925.336351 -79.2 
L 927.653723 -79.2 
L 929.971095 -79.2 
L 932.288467 -79.2 
L 934.605839 -79.2 
L 936.923211 -79.2 
L 939.240583 -79.2 
L 941.557955 -79.2 
L 943.875327 -79.2 
L 946.192699 -79.2 
L 948.510071 -79.2 
L 950.827443 -79.2 
L 953.144815 -79.2 
L 955.462187 -79.2 
L 957.779559 -79.2 
L 960.096931 -79.2 
L 962.414303 -79.2 
L 964.731675 -79.2 
L 967.049047 -79.2 
L 969.366419 -79.2 
L 971.683791 -79.2 
L 974.001163 -79.2 
L 976.318535 -79.2 
L 978.635907 -79.2 
L 980.953279 -79.2 
L 983.270651 -79.2 
L 985.588023 -79.2 
L 987.905395 -79.2 
L 990.222767 -79.2 
L 992.540139 -79.2 
L 994.857511 -79.2 
L 997.174883 -79.2 
L 999.492255 -79.2 
L 1001.809627 -79.2 
L 1004.126999 -79.2 
L 1006.444371 -79.2 
L 1008.761743 -79.2 
L 1011.079115 -79.2 
L 1013.396487 -79.2 
L 1015.713859 -79.2 
L 1018.031231 -79.2 
L 1020.348603 -79.2 
L 1022.665975 -79.2 
L 1024.983346 -79.2 
L 1027.300718 -79.2 
L 1029.61809 -79.2 
L 1031.935462 -79.2 
L 1034.252834 -79.2 
L 1036.570206 -79.2 
L 1038.887578 -79.2 
L 1041.20495 -79.2 
L 1043.522322 -79.2 
L 1045.839694 -79.2 
L 1048.157066 -79.2 
L 1050.474438 -79.2 
L 1052.79181 -79.2 
L 1055.109182 -79.2 
L 1057.426554 -79.2 
L 1059.743926 -79.2 
L 1062.061298 -79.2 
L 1064.37867 -79.2 
L 1066.696042 -79.2 
L 1069.013414 -79.2 
L 1071.330786 -79.2 
L 1073.648158 -79.2 
L 1075.96553 -79.2 
L 1078.282902 -79.2 
L 1080.600274 -79.2 
L 1082.917646 -79.2 
L 1085.235018 -79.2 
L 1087.55239 -79.2 
L 1089.869762 -79.2 
L 1092.187134 -79.2 
L 1094.504506 -79.2 
L 1096.821878 -79.2 
L 1099.13925 -79.2 
L 1101.456622 -79.2 
L 1103.773994 -79.2 
L 1106.091366 -79.2 
L 1108.408738 -79.2 
L 1110.72611 -79.2 
L 1113.043482 -79.2 
L 1115.360854 -79.2 
L 1117.678226 -79.2 
L 1119.995598 -79.2 
L 1122.31297 -79.2 
L 1124.630342 -79.2 
L 1126.947714 -79.2 
L 1129.265086 -79.2 
L 1131.582458 -79.2 
L 1133.89983 -79.2 
L 1136.217202 -79.2 
L 1138.534574 -79.2 
L 1140.851946 -79.2 
L 1143.169318 -79.2 
L 1145.48669 -79.2 
L 1147.804062 -79.2 
L 1150.121434 -79.2 
L 1152.438806 -79.2 
L 1154.756178 -79.2 
L 1157.07355 -79.2 
L 1159.390922 -79.2 
L 1161.708294 -79.2 
L 1164.025666 -79.2 
L 1166.343038 -79.2 
L 1168.660409 -79.2 
L 1170.977781 -79.2 
L 1173.295153 -79.2 
L 1175.612525 -79.2 
L 1177.929897 -79.2 
L 1180.247269 -79.2 
L 1182.564641 -79.2 
L 1184.882013 -79.2 
L 1187.199385 -79.2 
L 1189.516757 -79.2 
L 1191.834129 -79.2 
L 1194.151501 -79.2 
L 1196.468873 -79.2 
L 1198.786245 -79.2 
L 1201.103617 -79.2 
L 1203.420989 -79.2 
L 1205.738361 -79.2 
L 1208.055733 -79.2 
L 1210.373105 -79.2 
L 1212.690477 -79.2 
L 1215.007849 -79.2 
L 1217.325221 -79.2 
L 1219.642593 -79.2 
L 1221.959965 -79.2 
L 1224.277337 -79.2 
L 1226.594709 -79.2 
L 1228.912081 -79.2 
L 1231.229453 -79.2 
L 1233.546825 -79.2 
L 1235.864197 -79.2 
L 1238.181569 -79.2 
L 1240.498941 -79.2 
L 1242.816313 -79.2 
L 1245.133685 -79.2 
L 1247.451057 -79.2 
L 1249.768429 -79.2 
L 1252.085801 -79.2 
L 1254.403173 -79.2 
L 1256.720545 -79.2 
L 1259.037917 -79.2 
L 1261.355289 -79.2 
L 1263.672661 -79.2 
L 1265.990033 -79.2 
L 1268.307405 -79.2 
L 1270.624777 -79.2 
L 1272.942149 -79.2 
L 1272.942149 -79.202673 
L 1272.942149 -79.202673 
L 1270.624777 -79.206774 
L 1268.307405 -79.21576 
L 1265.990033 -79.23372 
L 1263.672661 -79.26651 
L 1261.355289 -79.321329 
L 1259.037917 -79.405605 
L 1256.720545 -79.525614 
L 1254.403173 -79.685748 
L 1252.085801 -79.889454 
L 1249.768429 -80.142101 
L 1247.451057 -80.454829 
L 1245.133685 -80.847539 
L 1242.816313 -81.349521 
L 1240.498941 -81.997398 
L 1238.181569 -82.831096 
L 1235.864197 -83.888101 
L 1233.546825 -85.194789 
L 1231.229453 -86.753005 
L 1228.912081 -88.522715 
L 1226.594709 -90.407128 
L 1224.277337 -92.251515 
L 1221.959965 -93.865725 
L 1219.642593 -95.071009 
L 1217.325221 -95.757958 
L 1215.007849 -95.932289 
L 1212.690477 -95.726375 
L 1210.373105 -95.368188 
L 1208.055733 -95.11886 
L 1205.738361 -95.203261 
L 1203.420989 -95.756926 
L 1201.103617 -96.800756 
L 1198.786245 -98.244179 
L 1196.468873 -99.914902 
L 1194.151501 -101.613461 
L 1191.834129 -103.182935 
L 1189.516757 -104.56995 
L 1187.199385 -105.847487 
L 1184.882013 -107.184873 
L 1182.564641 -108.777796 
L 1180.247269 -110.769896 
L 1177.929897 -113.194691 
L 1175.612525 -115.951136 
L 1173.295153 -118.8159 
L 1170.977781 -121.495994 
L 1168.660409 -123.722992 
L 1166.343038 -125.37085 
L 1164.025666 -126.550142 
L 1161.708294 -127.620149 
L 1159.390922 -129.087821 
L 1157.07355 -131.420273 
L 1154.756178 -134.849882 
L 1152.438806 -139.265231 
L 1150.121434 -144.247918 
L 1147.804062 -149.249875 
L 1145.48669 -153.837332 
L 1143.169318 -157.888888 
L 1140.851946 -161.651281 
L 1138.534574 -165.625861 
L 1136.217202 -170.345894 
L 1133.89983 -176.158538 
L 1131.582458 -183.114056 
L 1129.265086 -190.998123 
L 1126.947714 -199.46276 
L 1124.630342 -208.163193 
L 1122.31297 -216.816563 
L 1119.995598 -225.156647 
L 1117.678226 -232.832025 
L 1115.360854 -239.338663 
L 1113.043482 -244.06455 
L 1110.72611 -246.46298 
L 1108.408738 -246.301168 
L 1106.091366 -243.888956 
L 1103.773994 -240.189336 
L 1101.456622 -236.739285 
L 1099.13925 -235.358961 
L 1096.821878 -237.700477 
L 1094.504506 -244.770879 
L 1092.187134 -256.613992 
L 1089.869762 -272.301335 
L 1087.55239 -290.256813 
L 1085.235018 -308.78658 
L 1082.917646 -326.596592 
L 1080.600274 -343.10482 
L 1078.282902 -358.466168 
L 1075.96553 -373.355383 
L 1073.648158 -388.634508 
L 1071.330786 -405.038365 
L 1069.013414 -422.954716 
L 1066.696042 -442.302457 
L 1064.37867 -462.482439 
L 1062.061298 -482.41281 
L 1059.743926 -500.70997 
L 1057.426554 -516.050245 
L 1055.109182 -527.624795 
L 1052.79181 -535.475257 
L 1050.474438 -540.505471 
L 1048.157066 -544.140852 
L 1045.839694 -547.826886 
L 1043.522322 -552.637253 
L 1041.20495 -559.132413 
L 1038.887578 -567.394036 
L 1036.570206 -577.060441 
L 1034.252834 -587.287537 
L 1031.935462 -596.74601 
L 1029.61809 -603.839885 
L 1027.300718 -607.2 
L 1024.983346 -606.2654 
L 1022.665975 -601.620836 
L 1020.348603 -594.847954 
L 1018.031231 -587.926421 
L 1015.713859 -582.492636 
L 1013.396487 -579.336577 
L 1011.079115 -578.354173 
L 1008.761743 -578.90163 
L 1006.444371 -580.293841 
L 1004.126999 -582.149574 
L 1001.809627 -584.406267 
L 999.492255 -587.035956 
L 997.174883 -589.6848 
L 994.857511 -591.517524 
L 992.540139 -591.416748 
L 990.222767 -588.435672 
L 987.905395 -582.210023 
L 985.588023 -573.054992 
L 983.270651 -561.694738 
L 980.953279 -548.820794 
L 978.635907 -534.762756 
L 976.318535 -519.437137 
L 974.001163 -502.540216 
L 971.683791 -483.825598 
L 969.366419 -463.314949 
L 967.049047 -441.37446 
L 964.731675 -418.667733 
L 962.414303 -396.033216 
L 960.096931 -374.338369 
L 957.779559 -354.346045 
L 955.462187 -336.602253 
L 953.144815 -321.340298 
L 950.827443 -308.411605 
L 948.510071 -297.281996 
L 946.192699 -287.132004 
L 943.875327 -277.052623 
L 941.557955 -266.26797 
L 939.240583 -254.298045 
L 936.923211 -241.014142 
L 934.605839 -226.599522 
L 932.288467 -211.460225 
L 929.971095 -196.122823 
L 927.653723 -181.133818 
L 925.336351 -166.967692 
L 923.018979 -153.959023 
L 920.701607 -142.278567 
L 918.384235 -131.959622 
L 916.066863 -122.956287 
L 913.749491 -115.199848 
L 911.432119 -108.626422 
L 909.114747 -103.172277 
L 906.797375 -98.754378 
L 904.480003 -95.258247 
L 902.162631 -92.543422 
L 899.845259 -90.461107 
L 897.527887 -88.871447 
L 895.210515 -87.652225 
L 892.893143 -86.700203 
L 890.575771 -85.93158 
L 888.258399 -85.285465 
L 885.941027 -84.727488 
L 883.623655 -84.247024 
L 881.306283 -83.844935 
L 878.988911 -83.516574 
L 876.67154 -83.2404 
L 874.354168 -82.980321 
L 872.036796 -82.700887 
L 869.719424 -82.385231 
L 867.402052 -82.043585 
L 865.08468 -81.706789 
L 862.767308 -81.409276 
L 860.449936 -81.171994 
L 858.132564 -80.99436 
L 855.815192 -80.857839 
L 853.49782 -80.737233 
L 851.180448 -80.612671 
L 848.863076 -80.47644 
L 846.545704 -80.332467 
L 844.228332 -80.190381 
L 841.91096 -80.058396 
L 839.593588 -79.939046 
L 837.276216 -79.829405 
L 834.958844 -79.724632 
L 832.641472 -79.622037 
L 830.3241 -79.523107 
L 828.006728 -79.432659 
L 825.689356 -79.356158 
L 823.371984 -79.297065 
L 821.054612 -79.255621 
L 818.73724 -79.22929 
L 816.419868 -79.214142 
L 814.102496 -79.206252 
L 811.785124 -79.202527 
z
" style="stroke: #00708d"/>
    </defs>
    <g clip-path="url(#p2c3bb186d0)">
     <use xlink:href="#m5e0a817c9f" x="0" y="720" style="fill: #00708d; fill-opacity: 0.5; stroke: #00708d"/>
    </g>
   </g>
   <g id="matplotlib.axis_3">
    <g id="xtick_9">
     <g id="line2d_35">
      <path d="M 859.89983 640.8 
L 859.89983 86.4 
" clip-path="url(#p2c3bb186d0)" style="fill: none; stroke: #808080; stroke-opacity: 0.9; stroke-width: 0.8; stroke-linecap: square"/>
     </g>
     <g id="line2d_36">
      <g>
       <use xlink:href="#m458bdbb619" x="859.89983" y="640.8" style="stroke: #000000; stroke-width: 0.8"/>
      </g>
     </g>
     <g id="text_22">
      <!-- 11 -->
      <g transform="translate(853.53733 655.398438) scale(0.1 -0.1)">
       <use xlink:href="#DejaVuSans-31"/>
       <use xlink:href="#DejaVuSans-31" transform="translate(63.623047 0)"/>
      </g>
     </g>
    </g>
    <g id="xtick_10">
     <g id="line2d_37">
      <path d="M 941.879653 640.8 
L 941.879653 86.4 
" clip-path="url(#p2c3bb186d0)" style="fill: none; stroke: #808080; stroke-opacity: 0.9; stroke-width: 0.8; stroke-linecap: square"/>
     </g>
     <g id="line2d_38">
      <g>
       <use xlink:href="#m458bdbb619" x="941.879653" y="640.8" style="stroke: #000000; stroke-width: 0.8"/>
      </g>
     </g>
     <g id="text_23">
      <!-- 12 -->
      <g transform="translate(935.517153 655.398438) scale(0.1 -0.1)">
       <use xlink:href="#DejaVuSans-31"/>
       <use xlink:href="#DejaVuSans-32" transform="translate(63.623047 0)"/>
      </g>
     </g>
    </g>
    <g id="xtick_11">
     <g id="line2d_39">
      <path d="M 1023.859476 640.8 
L 1023.859476 86.4 
" clip-path="url(#p2c3bb186d0)" style="fill: none; stroke: #808080; stroke-opacity: 0.9; stroke-width: 0.8; stroke-linecap: square"/>
     </g>
     <g id="line2d_40">
      <g>
       <use xlink:href="#m458bdbb619" x="1023.859476" y="640.8" style="stroke: #000000; stroke-width: 0.8"/>
      </g>
     </g>
     <g id="text_24">
      <!-- 13 -->
      <g transform="translate(1017.496976 655.398438) scale(0.1 -0.1)">
       <use xlink:href="#DejaVuSans-31"/>
       <use xlink:href="#DejaVuSans-33" transform="translate(63.623047 0)"/>
      </g>
     </g>
    </g>
    <g id="xtick_12">
     <g id="line2d_41">
      <path d="M 1105.839298 640.8 
L 1105.839298 86.4 
" clip-path="url(#p2c3bb186d0)" style="fill: none; stroke: #808080; stroke-opacity: 0.9; stroke-width: 0.8; stroke-linecap: square"/>
     </g>
     <g id="line2d_42">
      <g>
       <use xlink:href="#m458bdbb619" x="1105.839298" y="640.8" style="stroke: #000000; stroke-width: 0.8"/>
      </g>
     </g>
     <g id="text_25">
      <!-- 14 -->
      <g transform="translate(1099.476798 655.398438) scale(0.1 -0.1)">
       <use xlink:href="#DejaVuSans-31"/>
       <use xlink:href="#DejaVuSans-34" transform="translate(63.623047 0)"/>
      </g>
     </g>
    </g>
    <g id="xtick_13">
     <g id="line2d_43">
      <path d="M 1187.819121 640.8 
L 1187.819121 86.4 
" clip-path="url(#p2c3bb186d0)" style="fill: none; stroke: #808080; stroke-opacity: 0.9; stroke-width: 0.8; stroke-linecap: square"/>
     </g>
     <g id="line2d_44">
      <g>
       <use xlink:href="#m458bdbb619" x="1187.819121" y="640.8" style="stroke: #000000; stroke-width: 0.8"/>
      </g>
     </g>
     <g id="text_26">
      <!-- 15 -->
      <g transform="translate(1181.456621 655.398438) scale(0.1 -0.1)">
       <use xlink:href="#DejaVuSans-31"/>
       <use xlink:href="#DejaVuSans-35" transform="translate(63.623047 0)"/>
      </g>
     </g>
    </g>
    <g id="xtick_14">
     <g id="line2d_45">
      <path d="M 1269.798944 640.8 
L 1269.798944 86.4 
" clip-path="url(#p2c3bb186d0)" style="fill: none; stroke: #808080; stroke-opacity: 0.9; stroke-width: 0.8; stroke-linecap: square"/>
     </g>
     <g id="line2d_46">
      <g>
       <use xlink:href="#m458bdbb619" x="1269.798944" y="640.8" style="stroke: #000000; stroke-width: 0.8"/>
      </g>
     </g>
     <g id="text_27">
      <!-- 16 -->
      <g transform="translate(1263.436444 655.398438) scale(0.1 -0.1)">
       <use xlink:href="#DejaVuSans-31"/>
       <use xlink:href="#DejaVuSans-36" transform="translate(63.623047 0)"/>
      </g>
     </g>
    </g>
    <g id="text_28">
     <!-- Valor -->
     <g transform="translate(1025.982621 671.356094) scale(0.13 -0.13)">
      <use xlink:href="#DejaVuSans-56"/>
      <use xlink:href="#DejaVuSans-61" transform="translate(60.658203 0)"/>
      <use xlink:href="#DejaVuSans-6c" transform="translate(121.9375 0)"/>
      <use xlink:href="#DejaVuSans-6f" transform="translate(149.720703 0)"/>
      <use xlink:href="#DejaVuSans-72" transform="translate(210.902344 0)"/>
     </g>
    </g>
   </g>
   <g id="matplotlib.axis_4">
    <g id="ytick_10">
     <g id="line2d_47">
      <path d="M 788.727273 640.8 
L 1296 640.8 
" clip-path="url(#p2c3bb186d0)" style="fill: none; stroke: #808080; stroke-opacity: 0.9; stroke-width: 0.8; stroke-linecap: square"/>
     </g>
     <g id="line2d_48">
      <g>
       <use xlink:href="#mf3c9f11469" x="788.727273" y="640.8" style="stroke: #000000; stroke-width: 0.8"/>
      </g>
     </g>
     <g id="text_29">
      <!-- 0.0 -->
      <g transform="translate(765.824148 644.599219) scale(0.1 -0.1)">
       <use xlink:href="#DejaVuSans-30"/>
       <use xlink:href="#DejaVuSans-2e" transform="translate(63.623047 0)"/>
       <use xlink:href="#DejaVuSans-30" transform="translate(95.410156 0)"/>
      </g>
     </g>
    </g>
    <g id="ytick_11">
     <g id="line2d_49">
      <path d="M 788.727273 550.034414 
L 1296 550.034414 
" clip-path="url(#p2c3bb186d0)" style="fill: none; stroke: #808080; stroke-opacity: 0.9; stroke-width: 0.8; stroke-linecap: square"/>
     </g>
     <g id="line2d_50">
      <g>
       <use xlink:href="#mf3c9f11469" x="788.727273" y="550.034414" style="stroke: #000000; stroke-width: 0.8"/>
      </g>
     </g>
     <g id="text_30">
      <!-- 0.1 -->
      <g transform="translate(765.824148 553.833633) scale(0.1 -0.1)">
       <use xlink:href="#DejaVuSans-30"/>
       <use xlink:href="#DejaVuSans-2e" transform="translate(63.623047 0)"/>
       <use xlink:href="#DejaVuSans-31" transform="translate(95.410156 0)"/>
      </g>
     </g>
    </g>
    <g id="ytick_12">
     <g id="line2d_51">
      <path d="M 788.727273 459.268829 
L 1296 459.268829 
" clip-path="url(#p2c3bb186d0)" style="fill: none; stroke: #808080; stroke-opacity: 0.9; stroke-width: 0.8; stroke-linecap: square"/>
     </g>
     <g id="line2d_52">
      <g>
       <use xlink:href="#mf3c9f11469" x="788.727273" y="459.268829" style="stroke: #000000; stroke-width: 0.8"/>
      </g>
     </g>
     <g id="text_31">
      <!-- 0.2 -->
      <g transform="translate(765.824148 463.068047) scale(0.1 -0.1)">
       <use xlink:href="#DejaVuSans-30"/>
       <use xlink:href="#DejaVuSans-2e" transform="translate(63.623047 0)"/>
       <use xlink:href="#DejaVuSans-32" transform="translate(95.410156 0)"/>
      </g>
     </g>
    </g>
    <g id="ytick_13">
     <g id="line2d_53">
      <path d="M 788.727273 368.503243 
L 1296 368.503243 
" clip-path="url(#p2c3bb186d0)" style="fill: none; stroke: #808080; stroke-opacity: 0.9; stroke-width: 0.8; stroke-linecap: square"/>
     </g>
     <g id="line2d_54">
      <g>
       <use xlink:href="#mf3c9f11469" x="788.727273" y="368.503243" style="stroke: #000000; stroke-width: 0.8"/>
      </g>
     </g>
     <g id="text_32">
      <!-- 0.3 -->
      <g transform="translate(765.824148 372.302462) scale(0.1 -0.1)">
       <use xlink:href="#DejaVuSans-30"/>
       <use xlink:href="#DejaVuSans-2e" transform="translate(63.623047 0)"/>
       <use xlink:href="#DejaVuSans-33" transform="translate(95.410156 0)"/>
      </g>
     </g>
    </g>
    <g id="ytick_14">
     <g id="line2d_55">
      <path d="M 788.727273 277.737657 
L 1296 277.737657 
" clip-path="url(#p2c3bb186d0)" style="fill: none; stroke: #808080; stroke-opacity: 0.9; stroke-width: 0.8; stroke-linecap: square"/>
     </g>
     <g id="line2d_56">
      <g>
       <use xlink:href="#mf3c9f11469" x="788.727273" y="277.737657" style="stroke: #000000; stroke-width: 0.8"/>
      </g>
     </g>
     <g id="text_33">
      <!-- 0.4 -->
      <g transform="translate(765.824148 281.536876) scale(0.1 -0.1)">
       <use xlink:href="#DejaVuSans-30"/>
       <use xlink:href="#DejaVuSans-2e" transform="translate(63.623047 0)"/>
       <use xlink:href="#DejaVuSans-34" transform="translate(95.410156 0)"/>
      </g>
     </g>
    </g>
    <g id="ytick_15">
     <g id="line2d_57">
      <path d="M 788.727273 186.972072 
L 1296 186.972072 
" clip-path="url(#p2c3bb186d0)" style="fill: none; stroke: #808080; stroke-opacity: 0.9; stroke-width: 0.8; stroke-linecap: square"/>
     </g>
     <g id="line2d_58">
      <g>
       <use xlink:href="#mf3c9f11469" x="788.727273" y="186.972072" style="stroke: #000000; stroke-width: 0.8"/>
      </g>
     </g>
     <g id="text_34">
      <!-- 0.5 -->
      <g transform="translate(765.824148 190.771291) scale(0.1 -0.1)">
       <use xlink:href="#DejaVuSans-30"/>
       <use xlink:href="#DejaVuSans-2e" transform="translate(63.623047 0)"/>
       <use xlink:href="#DejaVuSans-35" transform="translate(95.410156 0)"/>
      </g>
     </g>
    </g>
    <g id="ytick_16">
     <g id="line2d_59">
      <path d="M 788.727273 96.206486 
L 1296 96.206486 
" clip-path="url(#p2c3bb186d0)" style="fill: none; stroke: #808080; stroke-opacity: 0.9; stroke-width: 0.8; stroke-linecap: square"/>
     </g>
     <g id="line2d_60">
      <g>
       <use xlink:href="#mf3c9f11469" x="788.727273" y="96.206486" style="stroke: #000000; stroke-width: 0.8"/>
      </g>
     </g>
     <g id="text_35">
      <!-- 0.6 -->
      <g transform="translate(765.824148 100.005705) scale(0.1 -0.1)">
       <use xlink:href="#DejaVuSans-30"/>
       <use xlink:href="#DejaVuSans-2e" transform="translate(63.623047 0)"/>
       <use xlink:href="#DejaVuSans-36" transform="translate(95.410156 0)"/>
      </g>
     </g>
    </g>
    <g id="text_36">
     <!-- Densidade -->
     <g transform="translate(759.120554 398.151562) rotate(-90) scale(0.13 -0.13)">
      <use xlink:href="#DejaVuSans-44"/>
      <use xlink:href="#DejaVuSans-65" transform="translate(77.001953 0)"/>
      <use xlink:href="#DejaVuSans-6e" transform="translate(138.525391 0)"/>
      <use xlink:href="#DejaVuSans-73" transform="translate(201.904297 0)"/>
      <use xlink:href="#DejaVuSans-69" transform="translate(254.003906 0)"/>
      <use xlink:href="#DejaVuSans-64" transform="translate(281.787109 0)"/>
      <use xlink:href="#DejaVuSans-61" transform="translate(345.263672 0)"/>
      <use xlink:href="#DejaVuSans-64" transform="translate(406.542969 0)"/>
      <use xlink:href="#DejaVuSans-65" transform="translate(470.019531 0)"/>
     </g>
    </g>
   </g>
   <g id="patch_8">
    <path d="M 788.727273 640.8 
L 788.727273 86.4 
" style="fill: none; stroke: #000000; stroke-width: 0.8; stroke-linejoin: miter; stroke-linecap: square"/>
   </g>
   <g id="patch_9">
    <path d="M 1296 640.8 
L 1296 86.4 
" style="fill: none; stroke: #000000; stroke-width: 0.8; stroke-linejoin: miter; stroke-linecap: square"/>
   </g>
   <g id="patch_10">
    <path d="M 788.727273 640.8 
L 1296 640.8 
" style="fill: none; stroke: #000000; stroke-width: 0.8; stroke-linejoin: miter; stroke-linecap: square"/>
   </g>
   <g id="patch_11">
    <path d="M 788.727273 86.4 
L 1296 86.4 
" style="fill: none; stroke: #000000; stroke-width: 0.8; stroke-linejoin: miter; stroke-linecap: square"/>
   </g>
  </g>
 </g>
 <defs>
  <clipPath id="p6b1c1d025f">
   <rect x="180" y="86.4" width="507.272727" height="554.4"/>
  </clipPath>
  <clipPath id="p2c3bb186d0">
   <rect x="788.727273" y="86.4" width="507.272727" height="554.4"/>
  </clipPath>
 </defs>
</svg>
