<?xml version="1.0" encoding="utf-8" standalone="no"?>
<!DOCTYPE svg PUBLIC "-//W3C//DTD SVG 1.1//EN"
  "http://www.w3.org/Graphics/SVG/1.1/DTD/svg11.dtd">
<svg xmlns:xlink="http://www.w3.org/1999/xlink" width="429.179062pt" height="197.060625pt" viewBox="0 0 429.179062 197.060625" xmlns="http://www.w3.org/2000/svg" version="1.1">
 <metadata>
  <rdf:RDF xmlns:dc="http://purl.org/dc/elements/1.1/" xmlns:cc="http://creativecommons.org/ns#" xmlns:rdf="http://www.w3.org/1999/02/22-rdf-syntax-ns#">
   <cc:Work>
    <dc:type rdf:resource="http://purl.org/dc/dcmitype/StillImage"/>
    <dc:date>2025-03-20T20:31:35.678148</dc:date>
    <dc:format>image/svg+xml</dc:format>
    <dc:creator>
     <cc:Agent>
      <dc:title>Matplotlib v3.10.0, https://matplotlib.org/</dc:title>
     </cc:Agent>
    </dc:creator>
   </cc:Work>
  </rdf:RDF>
 </metadata>
 <defs>
  <style type="text/css">*{stroke-linejoin: round; stroke-linecap: butt}</style>
 </defs>
 <g id="figure_1">
  <g id="patch_1">
   <path d="M 0 197.060625 
L 429.179062 197.060625 
L 429.179062 0 
L 0 0 
z
" style="fill: #ffffff"/>
  </g>
  <g id="axes_1">
   <g id="patch_2">
    <path d="M 151.599062 166.84 
L 421.979062 166.84 
L 421.979062 7.2 
L 151.599062 7.2 
z
" style="fill: #ffffff"/>
   </g>
   <g id="line2d_1">
    <path d="M 151.599062 166.84 
L 151.599062 7.2 
" clip-path="url(#p7db7a174c0)" style="fill: none; stroke: #999999; stroke-width: 1.5; stroke-linecap: square"/>
   </g>
   <g id="matplotlib.axis_1">
    <g id="xtick_1">
     <g id="line2d_2">
      <path d="M 151.599062 166.84 
L 151.599062 7.2 
" clip-path="url(#p7db7a174c0)" style="fill: none; stroke: #d3d3d3; stroke-opacity: 0.9; stroke-width: 0.8; stroke-linecap: square"/>
     </g>
     <g id="line2d_3">
      <defs>
       <path id="m7050640574" d="M 0 0 
L 0 3.5 
" style="stroke: #333333; stroke-width: 0.8"/>
      </defs>
      <g>
       <use xlink:href="#m7050640574" x="151.599062" y="166.84" style="fill: #333333; stroke: #333333; stroke-width: 0.8"/>
      </g>
     </g>
     <g id="text_1">
      <!-- 0.00 -->
      <g style="fill: #333333" transform="translate(144.919375 178.399062) scale(0.06 -0.06)">
       <defs>
        <path id="DejaVuSans-30" d="M 2034 4250 
Q 1547 4250 1301 3770 
Q 1056 3291 1056 2328 
Q 1056 1369 1301 889 
Q 1547 409 2034 409 
Q 2525 409 2770 889 
Q 3016 1369 3016 2328 
Q 3016 3291 2770 3770 
Q 2525 4250 2034 4250 
z
M 2034 4750 
Q 2819 4750 3233 4129 
Q 3647 3509 3647 2328 
Q 3647 1150 3233 529 
Q 2819 -91 2034 -91 
Q 1250 -91 836 529 
Q 422 1150 422 2328 
Q 422 3509 836 4129 
Q 1250 4750 2034 4750 
z
" transform="scale(0.015625)"/>
        <path id="DejaVuSans-2e" d="M 684 794 
L 1344 794 
L 1344 0 
L 684 0 
L 684 794 
z
" transform="scale(0.015625)"/>
       </defs>
       <use xlink:href="#DejaVuSans-30"/>
       <use xlink:href="#DejaVuSans-2e" transform="translate(63.623047 0)"/>
       <use xlink:href="#DejaVuSans-30" transform="translate(95.410156 0)"/>
       <use xlink:href="#DejaVuSans-30" transform="translate(159.033203 0)"/>
      </g>
     </g>
    </g>
    <g id="xtick_2">
     <g id="line2d_4">
      <path d="M 192.17642 166.84 
L 192.17642 7.2 
" clip-path="url(#p7db7a174c0)" style="fill: none; stroke: #d3d3d3; stroke-opacity: 0.9; stroke-width: 0.8; stroke-linecap: square"/>
     </g>
     <g id="line2d_5">
      <g>
       <use xlink:href="#m7050640574" x="192.17642" y="166.84" style="fill: #333333; stroke: #333333; stroke-width: 0.8"/>
      </g>
     </g>
     <g id="text_2">
      <!-- 0.02 -->
      <g style="fill: #333333" transform="translate(185.496733 178.399062) scale(0.06 -0.06)">
       <defs>
        <path id="DejaVuSans-32" d="M 1228 531 
L 3431 531 
L 3431 0 
L 469 0 
L 469 531 
Q 828 903 1448 1529 
Q 2069 2156 2228 2338 
Q 2531 2678 2651 2914 
Q 2772 3150 2772 3378 
Q 2772 3750 2511 3984 
Q 2250 4219 1831 4219 
Q 1534 4219 1204 4116 
Q 875 4013 500 3803 
L 500 4441 
Q 881 4594 1212 4672 
Q 1544 4750 1819 4750 
Q 2544 4750 2975 4387 
Q 3406 4025 3406 3419 
Q 3406 3131 3298 2873 
Q 3191 2616 2906 2266 
Q 2828 2175 2409 1742 
Q 1991 1309 1228 531 
z
" transform="scale(0.015625)"/>
       </defs>
       <use xlink:href="#DejaVuSans-30"/>
       <use xlink:href="#DejaVuSans-2e" transform="translate(63.623047 0)"/>
       <use xlink:href="#DejaVuSans-30" transform="translate(95.410156 0)"/>
       <use xlink:href="#DejaVuSans-32" transform="translate(159.033203 0)"/>
      </g>
     </g>
    </g>
    <g id="xtick_3">
     <g id="line2d_6">
      <path d="M 232.753778 166.84 
L 232.753778 7.2 
" clip-path="url(#p7db7a174c0)" style="fill: none; stroke: #d3d3d3; stroke-opacity: 0.9; stroke-width: 0.8; stroke-linecap: square"/>
     </g>
     <g id="line2d_7">
      <g>
       <use xlink:href="#m7050640574" x="232.753778" y="166.84" style="fill: #333333; stroke: #333333; stroke-width: 0.8"/>
      </g>
     </g>
     <g id="text_3">
      <!-- 0.04 -->
      <g style="fill: #333333" transform="translate(226.074091 178.399062) scale(0.06 -0.06)">
       <defs>
        <path id="DejaVuSans-34" d="M 2419 4116 
L 825 1625 
L 2419 1625 
L 2419 4116 
z
M 2253 4666 
L 3047 4666 
L 3047 1625 
L 3713 1625 
L 3713 1100 
L 3047 1100 
L 3047 0 
L 2419 0 
L 2419 1100 
L 313 1100 
L 313 1709 
L 2253 4666 
z
" transform="scale(0.015625)"/>
       </defs>
       <use xlink:href="#DejaVuSans-30"/>
       <use xlink:href="#DejaVuSans-2e" transform="translate(63.623047 0)"/>
       <use xlink:href="#DejaVuSans-30" transform="translate(95.410156 0)"/>
       <use xlink:href="#DejaVuSans-34" transform="translate(159.033203 0)"/>
      </g>
     </g>
    </g>
    <g id="xtick_4">
     <g id="line2d_8">
      <path d="M 273.331136 166.84 
L 273.331136 7.2 
" clip-path="url(#p7db7a174c0)" style="fill: none; stroke: #d3d3d3; stroke-opacity: 0.9; stroke-width: 0.8; stroke-linecap: square"/>
     </g>
     <g id="line2d_9">
      <g>
       <use xlink:href="#m7050640574" x="273.331136" y="166.84" style="fill: #333333; stroke: #333333; stroke-width: 0.8"/>
      </g>
     </g>
     <g id="text_4">
      <!-- 0.06 -->
      <g style="fill: #333333" transform="translate(266.651448 178.399062) scale(0.06 -0.06)">
       <defs>
        <path id="DejaVuSans-36" d="M 2113 2584 
Q 1688 2584 1439 2293 
Q 1191 2003 1191 1497 
Q 1191 994 1439 701 
Q 1688 409 2113 409 
Q 2538 409 2786 701 
Q 3034 994 3034 1497 
Q 3034 2003 2786 2293 
Q 2538 2584 2113 2584 
z
M 3366 4563 
L 3366 3988 
Q 3128 4100 2886 4159 
Q 2644 4219 2406 4219 
Q 1781 4219 1451 3797 
Q 1122 3375 1075 2522 
Q 1259 2794 1537 2939 
Q 1816 3084 2150 3084 
Q 2853 3084 3261 2657 
Q 3669 2231 3669 1497 
Q 3669 778 3244 343 
Q 2819 -91 2113 -91 
Q 1303 -91 875 529 
Q 447 1150 447 2328 
Q 447 3434 972 4092 
Q 1497 4750 2381 4750 
Q 2619 4750 2861 4703 
Q 3103 4656 3366 4563 
z
" transform="scale(0.015625)"/>
       </defs>
       <use xlink:href="#DejaVuSans-30"/>
       <use xlink:href="#DejaVuSans-2e" transform="translate(63.623047 0)"/>
       <use xlink:href="#DejaVuSans-30" transform="translate(95.410156 0)"/>
       <use xlink:href="#DejaVuSans-36" transform="translate(159.033203 0)"/>
      </g>
     </g>
    </g>
    <g id="xtick_5">
     <g id="line2d_10">
      <path d="M 313.908494 166.84 
L 313.908494 7.2 
" clip-path="url(#p7db7a174c0)" style="fill: none; stroke: #d3d3d3; stroke-opacity: 0.9; stroke-width: 0.8; stroke-linecap: square"/>
     </g>
     <g id="line2d_11">
      <g>
       <use xlink:href="#m7050640574" x="313.908494" y="166.84" style="fill: #333333; stroke: #333333; stroke-width: 0.8"/>
      </g>
     </g>
     <g id="text_5">
      <!-- 0.08 -->
      <g style="fill: #333333" transform="translate(307.228806 178.399062) scale(0.06 -0.06)">
       <defs>
        <path id="DejaVuSans-38" d="M 2034 2216 
Q 1584 2216 1326 1975 
Q 1069 1734 1069 1313 
Q 1069 891 1326 650 
Q 1584 409 2034 409 
Q 2484 409 2743 651 
Q 3003 894 3003 1313 
Q 3003 1734 2745 1975 
Q 2488 2216 2034 2216 
z
M 1403 2484 
Q 997 2584 770 2862 
Q 544 3141 544 3541 
Q 544 4100 942 4425 
Q 1341 4750 2034 4750 
Q 2731 4750 3128 4425 
Q 3525 4100 3525 3541 
Q 3525 3141 3298 2862 
Q 3072 2584 2669 2484 
Q 3125 2378 3379 2068 
Q 3634 1759 3634 1313 
Q 3634 634 3220 271 
Q 2806 -91 2034 -91 
Q 1263 -91 848 271 
Q 434 634 434 1313 
Q 434 1759 690 2068 
Q 947 2378 1403 2484 
z
M 1172 3481 
Q 1172 3119 1398 2916 
Q 1625 2713 2034 2713 
Q 2441 2713 2670 2916 
Q 2900 3119 2900 3481 
Q 2900 3844 2670 4047 
Q 2441 4250 2034 4250 
Q 1625 4250 1398 4047 
Q 1172 3844 1172 3481 
z
" transform="scale(0.015625)"/>
       </defs>
       <use xlink:href="#DejaVuSans-30"/>
       <use xlink:href="#DejaVuSans-2e" transform="translate(63.623047 0)"/>
       <use xlink:href="#DejaVuSans-30" transform="translate(95.410156 0)"/>
       <use xlink:href="#DejaVuSans-38" transform="translate(159.033203 0)"/>
      </g>
     </g>
    </g>
    <g id="xtick_6">
     <g id="line2d_12">
      <path d="M 354.485851 166.84 
L 354.485851 7.2 
" clip-path="url(#p7db7a174c0)" style="fill: none; stroke: #d3d3d3; stroke-opacity: 0.9; stroke-width: 0.8; stroke-linecap: square"/>
     </g>
     <g id="line2d_13">
      <g>
       <use xlink:href="#m7050640574" x="354.485851" y="166.84" style="fill: #333333; stroke: #333333; stroke-width: 0.8"/>
      </g>
     </g>
     <g id="text_6">
      <!-- 0.10 -->
      <g style="fill: #333333" transform="translate(347.806164 178.399062) scale(0.06 -0.06)">
       <defs>
        <path id="DejaVuSans-31" d="M 794 531 
L 1825 531 
L 1825 4091 
L 703 3866 
L 703 4441 
L 1819 4666 
L 2450 4666 
L 2450 531 
L 3481 531 
L 3481 0 
L 794 0 
L 794 531 
z
" transform="scale(0.015625)"/>
       </defs>
       <use xlink:href="#DejaVuSans-30"/>
       <use xlink:href="#DejaVuSans-2e" transform="translate(63.623047 0)"/>
       <use xlink:href="#DejaVuSans-31" transform="translate(95.410156 0)"/>
       <use xlink:href="#DejaVuSans-30" transform="translate(159.033203 0)"/>
      </g>
     </g>
    </g>
    <g id="xtick_7">
     <g id="line2d_14">
      <path d="M 395.063209 166.84 
L 395.063209 7.2 
" clip-path="url(#p7db7a174c0)" style="fill: none; stroke: #d3d3d3; stroke-opacity: 0.9; stroke-width: 0.8; stroke-linecap: square"/>
     </g>
     <g id="line2d_15">
      <g>
       <use xlink:href="#m7050640574" x="395.063209" y="166.84" style="fill: #333333; stroke: #333333; stroke-width: 0.8"/>
      </g>
     </g>
     <g id="text_7">
      <!-- 0.12 -->
      <g style="fill: #333333" transform="translate(388.383522 178.399062) scale(0.06 -0.06)">
       <use xlink:href="#DejaVuSans-30"/>
       <use xlink:href="#DejaVuSans-2e" transform="translate(63.623047 0)"/>
       <use xlink:href="#DejaVuSans-31" transform="translate(95.410156 0)"/>
       <use xlink:href="#DejaVuSans-32" transform="translate(159.033203 0)"/>
      </g>
     </g>
    </g>
    <g id="text_8">
     <!-- Média(|Valor SHAP|) (impacto médio na magnitude da predição do modelo) -->
     <g transform="translate(173.804844 188.445937) scale(0.06 -0.06)">
      <defs>
       <path id="DejaVuSans-4d" d="M 628 4666 
L 1569 4666 
L 2759 1491 
L 3956 4666 
L 4897 4666 
L 4897 0 
L 4281 0 
L 4281 4097 
L 3078 897 
L 2444 897 
L 1241 4097 
L 1241 0 
L 628 0 
L 628 4666 
z
" transform="scale(0.015625)"/>
       <path id="DejaVuSans-e9" d="M 3597 1894 
L 3597 1613 
L 953 1613 
Q 991 1019 1311 708 
Q 1631 397 2203 397 
Q 2534 397 2845 478 
Q 3156 559 3463 722 
L 3463 178 
Q 3153 47 2828 -22 
Q 2503 -91 2169 -91 
Q 1331 -91 842 396 
Q 353 884 353 1716 
Q 353 2575 817 3079 
Q 1281 3584 2069 3584 
Q 2775 3584 3186 3129 
Q 3597 2675 3597 1894 
z
M 3022 2063 
Q 3016 2534 2758 2815 
Q 2500 3097 2075 3097 
Q 1594 3097 1305 2825 
Q 1016 2553 972 2059 
L 3022 2063 
z
M 2466 5119 
L 3088 5119 
L 2070 3944 
L 1591 3944 
L 2466 5119 
z
" transform="scale(0.015625)"/>
       <path id="DejaVuSans-64" d="M 2906 2969 
L 2906 4863 
L 3481 4863 
L 3481 0 
L 2906 0 
L 2906 525 
Q 2725 213 2448 61 
Q 2172 -91 1784 -91 
Q 1150 -91 751 415 
Q 353 922 353 1747 
Q 353 2572 751 3078 
Q 1150 3584 1784 3584 
Q 2172 3584 2448 3432 
Q 2725 3281 2906 2969 
z
M 947 1747 
Q 947 1113 1208 752 
Q 1469 391 1925 391 
Q 2381 391 2643 752 
Q 2906 1113 2906 1747 
Q 2906 2381 2643 2742 
Q 2381 3103 1925 3103 
Q 1469 3103 1208 2742 
Q 947 2381 947 1747 
z
" transform="scale(0.015625)"/>
       <path id="DejaVuSans-69" d="M 603 3500 
L 1178 3500 
L 1178 0 
L 603 0 
L 603 3500 
z
M 603 4863 
L 1178 4863 
L 1178 4134 
L 603 4134 
L 603 4863 
z
" transform="scale(0.015625)"/>
       <path id="DejaVuSans-61" d="M 2194 1759 
Q 1497 1759 1228 1600 
Q 959 1441 959 1056 
Q 959 750 1161 570 
Q 1363 391 1709 391 
Q 2188 391 2477 730 
Q 2766 1069 2766 1631 
L 2766 1759 
L 2194 1759 
z
M 3341 1997 
L 3341 0 
L 2766 0 
L 2766 531 
Q 2569 213 2275 61 
Q 1981 -91 1556 -91 
Q 1019 -91 701 211 
Q 384 513 384 1019 
Q 384 1609 779 1909 
Q 1175 2209 1959 2209 
L 2766 2209 
L 2766 2266 
Q 2766 2663 2505 2880 
Q 2244 3097 1772 3097 
Q 1472 3097 1187 3025 
Q 903 2953 641 2809 
L 641 3341 
Q 956 3463 1253 3523 
Q 1550 3584 1831 3584 
Q 2591 3584 2966 3190 
Q 3341 2797 3341 1997 
z
" transform="scale(0.015625)"/>
       <path id="DejaVuSans-28" d="M 1984 4856 
Q 1566 4138 1362 3434 
Q 1159 2731 1159 2009 
Q 1159 1288 1364 580 
Q 1569 -128 1984 -844 
L 1484 -844 
Q 1016 -109 783 600 
Q 550 1309 550 2009 
Q 550 2706 781 3412 
Q 1013 4119 1484 4856 
L 1984 4856 
z
" transform="scale(0.015625)"/>
       <path id="DejaVuSans-7c" d="M 1344 4891 
L 1344 -1509 
L 813 -1509 
L 813 4891 
L 1344 4891 
z
" transform="scale(0.015625)"/>
       <path id="DejaVuSans-56" d="M 1831 0 
L 50 4666 
L 709 4666 
L 2188 738 
L 3669 4666 
L 4325 4666 
L 2547 0 
L 1831 0 
z
" transform="scale(0.015625)"/>
       <path id="DejaVuSans-6c" d="M 603 4863 
L 1178 4863 
L 1178 0 
L 603 0 
L 603 4863 
z
" transform="scale(0.015625)"/>
       <path id="DejaVuSans-6f" d="M 1959 3097 
Q 1497 3097 1228 2736 
Q 959 2375 959 1747 
Q 959 1119 1226 758 
Q 1494 397 1959 397 
Q 2419 397 2687 759 
Q 2956 1122 2956 1747 
Q 2956 2369 2687 2733 
Q 2419 3097 1959 3097 
z
M 1959 3584 
Q 2709 3584 3137 3096 
Q 3566 2609 3566 1747 
Q 3566 888 3137 398 
Q 2709 -91 1959 -91 
Q 1206 -91 779 398 
Q 353 888 353 1747 
Q 353 2609 779 3096 
Q 1206 3584 1959 3584 
z
" transform="scale(0.015625)"/>
       <path id="DejaVuSans-72" d="M 2631 2963 
Q 2534 3019 2420 3045 
Q 2306 3072 2169 3072 
Q 1681 3072 1420 2755 
Q 1159 2438 1159 1844 
L 1159 0 
L 581 0 
L 581 3500 
L 1159 3500 
L 1159 2956 
Q 1341 3275 1631 3429 
Q 1922 3584 2338 3584 
Q 2397 3584 2469 3576 
Q 2541 3569 2628 3553 
L 2631 2963 
z
" transform="scale(0.015625)"/>
       <path id="DejaVuSans-20" transform="scale(0.015625)"/>
       <path id="DejaVuSans-53" d="M 3425 4513 
L 3425 3897 
Q 3066 4069 2747 4153 
Q 2428 4238 2131 4238 
Q 1616 4238 1336 4038 
Q 1056 3838 1056 3469 
Q 1056 3159 1242 3001 
Q 1428 2844 1947 2747 
L 2328 2669 
Q 3034 2534 3370 2195 
Q 3706 1856 3706 1288 
Q 3706 609 3251 259 
Q 2797 -91 1919 -91 
Q 1588 -91 1214 -16 
Q 841 59 441 206 
L 441 856 
Q 825 641 1194 531 
Q 1563 422 1919 422 
Q 2459 422 2753 634 
Q 3047 847 3047 1241 
Q 3047 1584 2836 1778 
Q 2625 1972 2144 2069 
L 1759 2144 
Q 1053 2284 737 2584 
Q 422 2884 422 3419 
Q 422 4038 858 4394 
Q 1294 4750 2059 4750 
Q 2388 4750 2728 4690 
Q 3069 4631 3425 4513 
z
" transform="scale(0.015625)"/>
       <path id="DejaVuSans-48" d="M 628 4666 
L 1259 4666 
L 1259 2753 
L 3553 2753 
L 3553 4666 
L 4184 4666 
L 4184 0 
L 3553 0 
L 3553 2222 
L 1259 2222 
L 1259 0 
L 628 0 
L 628 4666 
z
" transform="scale(0.015625)"/>
       <path id="DejaVuSans-41" d="M 2188 4044 
L 1331 1722 
L 3047 1722 
L 2188 4044 
z
M 1831 4666 
L 2547 4666 
L 4325 0 
L 3669 0 
L 3244 1197 
L 1141 1197 
L 716 0 
L 50 0 
L 1831 4666 
z
" transform="scale(0.015625)"/>
       <path id="DejaVuSans-50" d="M 1259 4147 
L 1259 2394 
L 2053 2394 
Q 2494 2394 2734 2622 
Q 2975 2850 2975 3272 
Q 2975 3691 2734 3919 
Q 2494 4147 2053 4147 
L 1259 4147 
z
M 628 4666 
L 2053 4666 
Q 2838 4666 3239 4311 
Q 3641 3956 3641 3272 
Q 3641 2581 3239 2228 
Q 2838 1875 2053 1875 
L 1259 1875 
L 1259 0 
L 628 0 
L 628 4666 
z
" transform="scale(0.015625)"/>
       <path id="DejaVuSans-29" d="M 513 4856 
L 1013 4856 
Q 1481 4119 1714 3412 
Q 1947 2706 1947 2009 
Q 1947 1309 1714 600 
Q 1481 -109 1013 -844 
L 513 -844 
Q 928 -128 1133 580 
Q 1338 1288 1338 2009 
Q 1338 2731 1133 3434 
Q 928 4138 513 4856 
z
" transform="scale(0.015625)"/>
       <path id="DejaVuSans-6d" d="M 3328 2828 
Q 3544 3216 3844 3400 
Q 4144 3584 4550 3584 
Q 5097 3584 5394 3201 
Q 5691 2819 5691 2113 
L 5691 0 
L 5113 0 
L 5113 2094 
Q 5113 2597 4934 2840 
Q 4756 3084 4391 3084 
Q 3944 3084 3684 2787 
Q 3425 2491 3425 1978 
L 3425 0 
L 2847 0 
L 2847 2094 
Q 2847 2600 2669 2842 
Q 2491 3084 2119 3084 
Q 1678 3084 1418 2786 
Q 1159 2488 1159 1978 
L 1159 0 
L 581 0 
L 581 3500 
L 1159 3500 
L 1159 2956 
Q 1356 3278 1631 3431 
Q 1906 3584 2284 3584 
Q 2666 3584 2933 3390 
Q 3200 3197 3328 2828 
z
" transform="scale(0.015625)"/>
       <path id="DejaVuSans-70" d="M 1159 525 
L 1159 -1331 
L 581 -1331 
L 581 3500 
L 1159 3500 
L 1159 2969 
Q 1341 3281 1617 3432 
Q 1894 3584 2278 3584 
Q 2916 3584 3314 3078 
Q 3713 2572 3713 1747 
Q 3713 922 3314 415 
Q 2916 -91 2278 -91 
Q 1894 -91 1617 61 
Q 1341 213 1159 525 
z
M 3116 1747 
Q 3116 2381 2855 2742 
Q 2594 3103 2138 3103 
Q 1681 3103 1420 2742 
Q 1159 2381 1159 1747 
Q 1159 1113 1420 752 
Q 1681 391 2138 391 
Q 2594 391 2855 752 
Q 3116 1113 3116 1747 
z
" transform="scale(0.015625)"/>
       <path id="DejaVuSans-63" d="M 3122 3366 
L 3122 2828 
Q 2878 2963 2633 3030 
Q 2388 3097 2138 3097 
Q 1578 3097 1268 2742 
Q 959 2388 959 1747 
Q 959 1106 1268 751 
Q 1578 397 2138 397 
Q 2388 397 2633 464 
Q 2878 531 3122 666 
L 3122 134 
Q 2881 22 2623 -34 
Q 2366 -91 2075 -91 
Q 1284 -91 818 406 
Q 353 903 353 1747 
Q 353 2603 823 3093 
Q 1294 3584 2113 3584 
Q 2378 3584 2631 3529 
Q 2884 3475 3122 3366 
z
" transform="scale(0.015625)"/>
       <path id="DejaVuSans-74" d="M 1172 4494 
L 1172 3500 
L 2356 3500 
L 2356 3053 
L 1172 3053 
L 1172 1153 
Q 1172 725 1289 603 
Q 1406 481 1766 481 
L 2356 481 
L 2356 0 
L 1766 0 
Q 1100 0 847 248 
Q 594 497 594 1153 
L 594 3053 
L 172 3053 
L 172 3500 
L 594 3500 
L 594 4494 
L 1172 4494 
z
" transform="scale(0.015625)"/>
       <path id="DejaVuSans-6e" d="M 3513 2113 
L 3513 0 
L 2938 0 
L 2938 2094 
Q 2938 2591 2744 2837 
Q 2550 3084 2163 3084 
Q 1697 3084 1428 2787 
Q 1159 2491 1159 1978 
L 1159 0 
L 581 0 
L 581 3500 
L 1159 3500 
L 1159 2956 
Q 1366 3272 1645 3428 
Q 1925 3584 2291 3584 
Q 2894 3584 3203 3211 
Q 3513 2838 3513 2113 
z
" transform="scale(0.015625)"/>
       <path id="DejaVuSans-67" d="M 2906 1791 
Q 2906 2416 2648 2759 
Q 2391 3103 1925 3103 
Q 1463 3103 1205 2759 
Q 947 2416 947 1791 
Q 947 1169 1205 825 
Q 1463 481 1925 481 
Q 2391 481 2648 825 
Q 2906 1169 2906 1791 
z
M 3481 434 
Q 3481 -459 3084 -895 
Q 2688 -1331 1869 -1331 
Q 1566 -1331 1297 -1286 
Q 1028 -1241 775 -1147 
L 775 -588 
Q 1028 -725 1275 -790 
Q 1522 -856 1778 -856 
Q 2344 -856 2625 -561 
Q 2906 -266 2906 331 
L 2906 616 
Q 2728 306 2450 153 
Q 2172 0 1784 0 
Q 1141 0 747 490 
Q 353 981 353 1791 
Q 353 2603 747 3093 
Q 1141 3584 1784 3584 
Q 2172 3584 2450 3431 
Q 2728 3278 2906 2969 
L 2906 3500 
L 3481 3500 
L 3481 434 
z
" transform="scale(0.015625)"/>
       <path id="DejaVuSans-75" d="M 544 1381 
L 544 3500 
L 1119 3500 
L 1119 1403 
Q 1119 906 1312 657 
Q 1506 409 1894 409 
Q 2359 409 2629 706 
Q 2900 1003 2900 1516 
L 2900 3500 
L 3475 3500 
L 3475 0 
L 2900 0 
L 2900 538 
Q 2691 219 2414 64 
Q 2138 -91 1772 -91 
Q 1169 -91 856 284 
Q 544 659 544 1381 
z
M 1991 3584 
L 1991 3584 
z
" transform="scale(0.015625)"/>
       <path id="DejaVuSans-65" d="M 3597 1894 
L 3597 1613 
L 953 1613 
Q 991 1019 1311 708 
Q 1631 397 2203 397 
Q 2534 397 2845 478 
Q 3156 559 3463 722 
L 3463 178 
Q 3153 47 2828 -22 
Q 2503 -91 2169 -91 
Q 1331 -91 842 396 
Q 353 884 353 1716 
Q 353 2575 817 3079 
Q 1281 3584 2069 3584 
Q 2775 3584 3186 3129 
Q 3597 2675 3597 1894 
z
M 3022 2063 
Q 3016 2534 2758 2815 
Q 2500 3097 2075 3097 
Q 1594 3097 1305 2825 
Q 1016 2553 972 2059 
L 3022 2063 
z
" transform="scale(0.015625)"/>
       <path id="DejaVuSans-e7" d="M 3122 3366 
L 3122 2828 
Q 2878 2963 2633 3030 
Q 2388 3097 2138 3097 
Q 1578 3097 1268 2742 
Q 959 2388 959 1747 
Q 959 1106 1268 751 
Q 1578 397 2138 397 
Q 2388 397 2633 464 
Q 2878 531 3122 666 
L 3122 134 
Q 2881 22 2623 -34 
Q 2366 -91 2075 -91 
Q 1284 -91 818 406 
Q 353 903 353 1747 
Q 353 2603 823 3093 
Q 1294 3584 2113 3584 
Q 2378 3584 2631 3529 
Q 2884 3475 3122 3366 
z
M 2311 0 
Q 2482 -194 2566 -358 
Q 2651 -522 2651 -672 
Q 2651 -950 2463 -1092 
Q 2276 -1234 1907 -1234 
Q 1764 -1234 1628 -1215 
Q 1492 -1197 1357 -1159 
L 1357 -750 
Q 1464 -803 1579 -826 
Q 1695 -850 1842 -850 
Q 2026 -850 2120 -775 
Q 2214 -700 2214 -556 
Q 2214 -463 2146 -327 
Q 2079 -191 1939 0 
L 2311 0 
z
" transform="scale(0.015625)"/>
       <path id="DejaVuSans-e3" d="M 2194 1759 
Q 1497 1759 1228 1600 
Q 959 1441 959 1056 
Q 959 750 1161 570 
Q 1363 391 1709 391 
Q 2188 391 2477 730 
Q 2766 1069 2766 1631 
L 2766 1759 
L 2194 1759 
z
M 3341 1997 
L 3341 0 
L 2766 0 
L 2766 531 
Q 2569 213 2275 61 
Q 1981 -91 1556 -91 
Q 1019 -91 701 211 
Q 384 513 384 1019 
Q 384 1609 779 1909 
Q 1175 2209 1959 2209 
L 2766 2209 
L 2766 2266 
Q 2766 2663 2505 2880 
Q 2244 3097 1772 3097 
Q 1472 3097 1187 3025 
Q 903 2953 641 2809 
L 641 3341 
Q 956 3463 1253 3523 
Q 1550 3584 1831 3584 
Q 2591 3584 2966 3190 
Q 3341 2797 3341 1997 
z
M 1844 4281 
L 1665 4453 
Q 1597 4516 1545 4545 
Q 1494 4575 1453 4575 
Q 1334 4575 1278 4461 
Q 1222 4347 1215 4091 
L 825 4091 
Q 831 4513 990 4742 
Q 1150 4972 1434 4972 
Q 1553 4972 1653 4928 
Q 1753 4884 1869 4781 
L 2047 4609 
Q 2115 4547 2167 4517 
Q 2219 4488 2259 4488 
Q 2378 4488 2434 4602 
Q 2490 4716 2497 4972 
L 2887 4972 
Q 2881 4550 2721 4320 
Q 2562 4091 2278 4091 
Q 2159 4091 2059 4134 
Q 1959 4178 1844 4281 
z
" transform="scale(0.015625)"/>
      </defs>
      <use xlink:href="#DejaVuSans-4d"/>
      <use xlink:href="#DejaVuSans-e9" transform="translate(86.279297 0)"/>
      <use xlink:href="#DejaVuSans-64" transform="translate(147.802734 0)"/>
      <use xlink:href="#DejaVuSans-69" transform="translate(211.279297 0)"/>
      <use xlink:href="#DejaVuSans-61" transform="translate(239.0625 0)"/>
      <use xlink:href="#DejaVuSans-28" transform="translate(300.341797 0)"/>
      <use xlink:href="#DejaVuSans-7c" transform="translate(339.355469 0)"/>
      <use xlink:href="#DejaVuSans-56" transform="translate(373.046875 0)"/>
      <use xlink:href="#DejaVuSans-61" transform="translate(433.705078 0)"/>
      <use xlink:href="#DejaVuSans-6c" transform="translate(494.984375 0)"/>
      <use xlink:href="#DejaVuSans-6f" transform="translate(522.767578 0)"/>
      <use xlink:href="#DejaVuSans-72" transform="translate(583.949219 0)"/>
      <use xlink:href="#DejaVuSans-20" transform="translate(625.0625 0)"/>
      <use xlink:href="#DejaVuSans-53" transform="translate(656.849609 0)"/>
      <use xlink:href="#DejaVuSans-48" transform="translate(720.326172 0)"/>
      <use xlink:href="#DejaVuSans-41" transform="translate(795.521484 0)"/>
      <use xlink:href="#DejaVuSans-50" transform="translate(863.929688 0)"/>
      <use xlink:href="#DejaVuSans-7c" transform="translate(924.232422 0)"/>
      <use xlink:href="#DejaVuSans-29" transform="translate(957.923828 0)"/>
      <use xlink:href="#DejaVuSans-20" transform="translate(996.9375 0)"/>
      <use xlink:href="#DejaVuSans-28" transform="translate(1028.724609 0)"/>
      <use xlink:href="#DejaVuSans-69" transform="translate(1067.738281 0)"/>
      <use xlink:href="#DejaVuSans-6d" transform="translate(1095.521484 0)"/>
      <use xlink:href="#DejaVuSans-70" transform="translate(1192.933594 0)"/>
      <use xlink:href="#DejaVuSans-61" transform="translate(1256.410156 0)"/>
      <use xlink:href="#DejaVuSans-63" transform="translate(1317.689453 0)"/>
      <use xlink:href="#DejaVuSans-74" transform="translate(1372.669922 0)"/>
      <use xlink:href="#DejaVuSans-6f" transform="translate(1411.878906 0)"/>
      <use xlink:href="#DejaVuSans-20" transform="translate(1473.060547 0)"/>
      <use xlink:href="#DejaVuSans-6d" transform="translate(1504.847656 0)"/>
      <use xlink:href="#DejaVuSans-e9" transform="translate(1602.259766 0)"/>
      <use xlink:href="#DejaVuSans-64" transform="translate(1663.783203 0)"/>
      <use xlink:href="#DejaVuSans-69" transform="translate(1727.259766 0)"/>
      <use xlink:href="#DejaVuSans-6f" transform="translate(1755.042969 0)"/>
      <use xlink:href="#DejaVuSans-20" transform="translate(1816.224609 0)"/>
      <use xlink:href="#DejaVuSans-6e" transform="translate(1848.011719 0)"/>
      <use xlink:href="#DejaVuSans-61" transform="translate(1911.390625 0)"/>
      <use xlink:href="#DejaVuSans-20" transform="translate(1972.669922 0)"/>
      <use xlink:href="#DejaVuSans-6d" transform="translate(2004.457031 0)"/>
      <use xlink:href="#DejaVuSans-61" transform="translate(2101.869141 0)"/>
      <use xlink:href="#DejaVuSans-67" transform="translate(2163.148438 0)"/>
      <use xlink:href="#DejaVuSans-6e" transform="translate(2226.625 0)"/>
      <use xlink:href="#DejaVuSans-69" transform="translate(2290.003906 0)"/>
      <use xlink:href="#DejaVuSans-74" transform="translate(2317.787109 0)"/>
      <use xlink:href="#DejaVuSans-75" transform="translate(2356.996094 0)"/>
      <use xlink:href="#DejaVuSans-64" transform="translate(2420.375 0)"/>
      <use xlink:href="#DejaVuSans-65" transform="translate(2483.851562 0)"/>
      <use xlink:href="#DejaVuSans-20" transform="translate(2545.375 0)"/>
      <use xlink:href="#DejaVuSans-64" transform="translate(2577.162109 0)"/>
      <use xlink:href="#DejaVuSans-61" transform="translate(2640.638672 0)"/>
      <use xlink:href="#DejaVuSans-20" transform="translate(2701.917969 0)"/>
      <use xlink:href="#DejaVuSans-70" transform="translate(2733.705078 0)"/>
      <use xlink:href="#DejaVuSans-72" transform="translate(2797.181641 0)"/>
      <use xlink:href="#DejaVuSans-65" transform="translate(2836.044922 0)"/>
      <use xlink:href="#DejaVuSans-64" transform="translate(2897.568359 0)"/>
      <use xlink:href="#DejaVuSans-69" transform="translate(2961.044922 0)"/>
      <use xlink:href="#DejaVuSans-e7" transform="translate(2988.828125 0)"/>
      <use xlink:href="#DejaVuSans-e3" transform="translate(3043.808594 0)"/>
      <use xlink:href="#DejaVuSans-6f" transform="translate(3105.087891 0)"/>
      <use xlink:href="#DejaVuSans-20" transform="translate(3166.269531 0)"/>
      <use xlink:href="#DejaVuSans-64" transform="translate(3198.056641 0)"/>
      <use xlink:href="#DejaVuSans-6f" transform="translate(3261.533203 0)"/>
      <use xlink:href="#DejaVuSans-20" transform="translate(3322.714844 0)"/>
      <use xlink:href="#DejaVuSans-6d" transform="translate(3354.501953 0)"/>
      <use xlink:href="#DejaVuSans-6f" transform="translate(3451.914062 0)"/>
      <use xlink:href="#DejaVuSans-64" transform="translate(3513.095703 0)"/>
      <use xlink:href="#DejaVuSans-65" transform="translate(3576.572266 0)"/>
      <use xlink:href="#DejaVuSans-6c" transform="translate(3638.095703 0)"/>
      <use xlink:href="#DejaVuSans-6f" transform="translate(3665.878906 0)"/>
      <use xlink:href="#DejaVuSans-29" transform="translate(3727.060547 0)"/>
     </g>
    </g>
   </g>
   <g id="matplotlib.axis_2">
    <g id="ytick_1">
     <g id="line2d_16">
      <path d="M 151.599062 159.238095 
L 421.979062 159.238095 
" clip-path="url(#p7db7a174c0)" style="fill: none; stroke: #d3d3d3; stroke-opacity: 0.9; stroke-width: 0.8; stroke-linecap: square"/>
     </g>
     <g id="text_9">
      <!-- Playground -->
      <g style="fill: #333333" transform="translate(110.860312 161.517626) scale(0.06 -0.06)">
       <defs>
        <path id="DejaVuSans-79" d="M 2059 -325 
Q 1816 -950 1584 -1140 
Q 1353 -1331 966 -1331 
L 506 -1331 
L 506 -850 
L 844 -850 
Q 1081 -850 1212 -737 
Q 1344 -625 1503 -206 
L 1606 56 
L 191 3500 
L 800 3500 
L 1894 763 
L 2988 3500 
L 3597 3500 
L 2059 -325 
z
" transform="scale(0.015625)"/>
       </defs>
       <use xlink:href="#DejaVuSans-50"/>
       <use xlink:href="#DejaVuSans-6c" transform="translate(60.302734 0)"/>
       <use xlink:href="#DejaVuSans-61" transform="translate(88.085938 0)"/>
       <use xlink:href="#DejaVuSans-79" transform="translate(149.365234 0)"/>
       <use xlink:href="#DejaVuSans-67" transform="translate(208.544922 0)"/>
       <use xlink:href="#DejaVuSans-72" transform="translate(272.021484 0)"/>
       <use xlink:href="#DejaVuSans-6f" transform="translate(310.884766 0)"/>
       <use xlink:href="#DejaVuSans-75" transform="translate(372.066406 0)"/>
       <use xlink:href="#DejaVuSans-6e" transform="translate(435.445312 0)"/>
       <use xlink:href="#DejaVuSans-64" transform="translate(498.824219 0)"/>
      </g>
     </g>
    </g>
    <g id="ytick_2">
     <g id="line2d_17">
      <path d="M 151.599062 151.63619 
L 421.979062 151.63619 
" clip-path="url(#p7db7a174c0)" style="fill: none; stroke: #d3d3d3; stroke-opacity: 0.9; stroke-width: 0.8; stroke-linecap: square"/>
     </g>
     <g id="text_10">
      <!-- Salão de festa -->
      <g style="fill: #333333" transform="translate(101.824687 153.915722) scale(0.06 -0.06)">
       <defs>
        <path id="DejaVuSans-66" d="M 2375 4863 
L 2375 4384 
L 1825 4384 
Q 1516 4384 1395 4259 
Q 1275 4134 1275 3809 
L 1275 3500 
L 2222 3500 
L 2222 3053 
L 1275 3053 
L 1275 0 
L 697 0 
L 697 3053 
L 147 3053 
L 147 3500 
L 697 3500 
L 697 3744 
Q 697 4328 969 4595 
Q 1241 4863 1831 4863 
L 2375 4863 
z
" transform="scale(0.015625)"/>
        <path id="DejaVuSans-73" d="M 2834 3397 
L 2834 2853 
Q 2591 2978 2328 3040 
Q 2066 3103 1784 3103 
Q 1356 3103 1142 2972 
Q 928 2841 928 2578 
Q 928 2378 1081 2264 
Q 1234 2150 1697 2047 
L 1894 2003 
Q 2506 1872 2764 1633 
Q 3022 1394 3022 966 
Q 3022 478 2636 193 
Q 2250 -91 1575 -91 
Q 1294 -91 989 -36 
Q 684 19 347 128 
L 347 722 
Q 666 556 975 473 
Q 1284 391 1588 391 
Q 1994 391 2212 530 
Q 2431 669 2431 922 
Q 2431 1156 2273 1281 
Q 2116 1406 1581 1522 
L 1381 1569 
Q 847 1681 609 1914 
Q 372 2147 372 2553 
Q 372 3047 722 3315 
Q 1072 3584 1716 3584 
Q 2034 3584 2315 3537 
Q 2597 3491 2834 3397 
z
" transform="scale(0.015625)"/>
       </defs>
       <use xlink:href="#DejaVuSans-53"/>
       <use xlink:href="#DejaVuSans-61" transform="translate(63.476562 0)"/>
       <use xlink:href="#DejaVuSans-6c" transform="translate(124.755859 0)"/>
       <use xlink:href="#DejaVuSans-e3" transform="translate(152.539062 0)"/>
       <use xlink:href="#DejaVuSans-6f" transform="translate(213.818359 0)"/>
       <use xlink:href="#DejaVuSans-20" transform="translate(275 0)"/>
       <use xlink:href="#DejaVuSans-64" transform="translate(306.787109 0)"/>
       <use xlink:href="#DejaVuSans-65" transform="translate(370.263672 0)"/>
       <use xlink:href="#DejaVuSans-20" transform="translate(431.787109 0)"/>
       <use xlink:href="#DejaVuSans-66" transform="translate(463.574219 0)"/>
       <use xlink:href="#DejaVuSans-65" transform="translate(498.779297 0)"/>
       <use xlink:href="#DejaVuSans-73" transform="translate(560.302734 0)"/>
       <use xlink:href="#DejaVuSans-74" transform="translate(612.402344 0)"/>
       <use xlink:href="#DejaVuSans-61" transform="translate(651.611328 0)"/>
      </g>
     </g>
    </g>
    <g id="ytick_3">
     <g id="line2d_18">
      <path d="M 151.599062 144.034286 
L 421.979062 144.034286 
" clip-path="url(#p7db7a174c0)" style="fill: none; stroke: #d3d3d3; stroke-opacity: 0.9; stroke-width: 0.8; stroke-linecap: square"/>
     </g>
     <g id="text_11">
      <!-- Varanda gourmet -->
      <g style="fill: #333333" transform="translate(92.41125 146.313817) scale(0.06 -0.06)">
       <use xlink:href="#DejaVuSans-56"/>
       <use xlink:href="#DejaVuSans-61" transform="translate(60.658203 0)"/>
       <use xlink:href="#DejaVuSans-72" transform="translate(121.9375 0)"/>
       <use xlink:href="#DejaVuSans-61" transform="translate(163.050781 0)"/>
       <use xlink:href="#DejaVuSans-6e" transform="translate(224.330078 0)"/>
       <use xlink:href="#DejaVuSans-64" transform="translate(287.708984 0)"/>
       <use xlink:href="#DejaVuSans-61" transform="translate(351.185547 0)"/>
       <use xlink:href="#DejaVuSans-20" transform="translate(412.464844 0)"/>
       <use xlink:href="#DejaVuSans-67" transform="translate(444.251953 0)"/>
       <use xlink:href="#DejaVuSans-6f" transform="translate(507.728516 0)"/>
       <use xlink:href="#DejaVuSans-75" transform="translate(568.910156 0)"/>
       <use xlink:href="#DejaVuSans-72" transform="translate(632.289062 0)"/>
       <use xlink:href="#DejaVuSans-6d" transform="translate(671.652344 0)"/>
       <use xlink:href="#DejaVuSans-65" transform="translate(769.064453 0)"/>
       <use xlink:href="#DejaVuSans-74" transform="translate(830.587891 0)"/>
      </g>
     </g>
    </g>
    <g id="ytick_4">
     <g id="line2d_19">
      <path d="M 151.599062 136.432381 
L 421.979062 136.432381 
" clip-path="url(#p7db7a174c0)" style="fill: none; stroke: #d3d3d3; stroke-opacity: 0.9; stroke-width: 0.8; stroke-linecap: square"/>
     </g>
     <g id="text_12">
      <!-- Área de serviço -->
      <g style="fill: #333333" transform="translate(98.007187 139.162381) scale(0.06 -0.06)">
       <defs>
        <path id="DejaVuSans-c1" d="M 2188 4044 
L 1331 1722 
L 3047 1722 
L 2188 4044 
z
M 1831 4666 
L 2547 4666 
L 4325 0 
L 3669 0 
L 3244 1197 
L 1141 1197 
L 716 0 
L 50 0 
L 1831 4666 
z
M 2356 5921 
L 2934 5921 
L 2222 5096 
L 1743 5096 
L 2356 5921 
z
" transform="scale(0.015625)"/>
        <path id="DejaVuSans-76" d="M 191 3500 
L 800 3500 
L 1894 563 
L 2988 3500 
L 3597 3500 
L 2284 0 
L 1503 0 
L 191 3500 
z
" transform="scale(0.015625)"/>
       </defs>
       <use xlink:href="#DejaVuSans-c1"/>
       <use xlink:href="#DejaVuSans-72" transform="translate(68.408203 0)"/>
       <use xlink:href="#DejaVuSans-65" transform="translate(107.271484 0)"/>
       <use xlink:href="#DejaVuSans-61" transform="translate(168.794922 0)"/>
       <use xlink:href="#DejaVuSans-20" transform="translate(230.074219 0)"/>
       <use xlink:href="#DejaVuSans-64" transform="translate(261.861328 0)"/>
       <use xlink:href="#DejaVuSans-65" transform="translate(325.337891 0)"/>
       <use xlink:href="#DejaVuSans-20" transform="translate(386.861328 0)"/>
       <use xlink:href="#DejaVuSans-73" transform="translate(418.648438 0)"/>
       <use xlink:href="#DejaVuSans-65" transform="translate(470.748047 0)"/>
       <use xlink:href="#DejaVuSans-72" transform="translate(532.271484 0)"/>
       <use xlink:href="#DejaVuSans-76" transform="translate(573.384766 0)"/>
       <use xlink:href="#DejaVuSans-69" transform="translate(632.564453 0)"/>
       <use xlink:href="#DejaVuSans-e7" transform="translate(660.347656 0)"/>
       <use xlink:href="#DejaVuSans-6f" transform="translate(715.328125 0)"/>
      </g>
     </g>
    </g>
    <g id="ytick_5">
     <g id="line2d_20">
      <path d="M 151.599062 128.830476 
L 421.979062 128.830476 
" clip-path="url(#p7db7a174c0)" style="fill: none; stroke: #d3d3d3; stroke-opacity: 0.9; stroke-width: 0.8; stroke-linecap: square"/>
     </g>
     <g id="text_13">
      <!-- Espaço gourmet -->
      <g style="fill: #333333" transform="translate(95.78625 131.110007) scale(0.06 -0.06)">
       <defs>
        <path id="DejaVuSans-45" d="M 628 4666 
L 3578 4666 
L 3578 4134 
L 1259 4134 
L 1259 2753 
L 3481 2753 
L 3481 2222 
L 1259 2222 
L 1259 531 
L 3634 531 
L 3634 0 
L 628 0 
L 628 4666 
z
" transform="scale(0.015625)"/>
       </defs>
       <use xlink:href="#DejaVuSans-45"/>
       <use xlink:href="#DejaVuSans-73" transform="translate(63.183594 0)"/>
       <use xlink:href="#DejaVuSans-70" transform="translate(115.283203 0)"/>
       <use xlink:href="#DejaVuSans-61" transform="translate(178.759766 0)"/>
       <use xlink:href="#DejaVuSans-e7" transform="translate(240.039062 0)"/>
       <use xlink:href="#DejaVuSans-6f" transform="translate(295.019531 0)"/>
       <use xlink:href="#DejaVuSans-20" transform="translate(356.201172 0)"/>
       <use xlink:href="#DejaVuSans-67" transform="translate(387.988281 0)"/>
       <use xlink:href="#DejaVuSans-6f" transform="translate(451.464844 0)"/>
       <use xlink:href="#DejaVuSans-75" transform="translate(512.646484 0)"/>
       <use xlink:href="#DejaVuSans-72" transform="translate(576.025391 0)"/>
       <use xlink:href="#DejaVuSans-6d" transform="translate(615.388672 0)"/>
       <use xlink:href="#DejaVuSans-65" transform="translate(712.800781 0)"/>
       <use xlink:href="#DejaVuSans-74" transform="translate(774.324219 0)"/>
      </g>
     </g>
    </g>
    <g id="ytick_6">
     <g id="line2d_21">
      <path d="M 151.599062 121.228571 
L 421.979062 121.228571 
" clip-path="url(#p7db7a174c0)" style="fill: none; stroke: #d3d3d3; stroke-opacity: 0.9; stroke-width: 0.8; stroke-linecap: square"/>
     </g>
     <g id="text_14">
      <!-- Elevador -->
      <g style="fill: #333333" transform="translate(118.274062 123.508103) scale(0.06 -0.06)">
       <use xlink:href="#DejaVuSans-45"/>
       <use xlink:href="#DejaVuSans-6c" transform="translate(63.183594 0)"/>
       <use xlink:href="#DejaVuSans-65" transform="translate(90.966797 0)"/>
       <use xlink:href="#DejaVuSans-76" transform="translate(152.490234 0)"/>
       <use xlink:href="#DejaVuSans-61" transform="translate(211.669922 0)"/>
       <use xlink:href="#DejaVuSans-64" transform="translate(272.949219 0)"/>
       <use xlink:href="#DejaVuSans-6f" transform="translate(336.425781 0)"/>
       <use xlink:href="#DejaVuSans-72" transform="translate(397.607422 0)"/>
      </g>
     </g>
    </g>
    <g id="ytick_7">
     <g id="line2d_22">
      <path d="M 151.599062 113.626667 
L 421.979062 113.626667 
" clip-path="url(#p7db7a174c0)" style="fill: none; stroke: #d3d3d3; stroke-opacity: 0.9; stroke-width: 0.8; stroke-linecap: square"/>
     </g>
     <g id="text_15">
      <!-- Piscina -->
      <g style="fill: #333333" transform="translate(123.878437 115.906198) scale(0.06 -0.06)">
       <use xlink:href="#DejaVuSans-50"/>
       <use xlink:href="#DejaVuSans-69" transform="translate(58.052734 0)"/>
       <use xlink:href="#DejaVuSans-73" transform="translate(85.835938 0)"/>
       <use xlink:href="#DejaVuSans-63" transform="translate(137.935547 0)"/>
       <use xlink:href="#DejaVuSans-69" transform="translate(192.916016 0)"/>
       <use xlink:href="#DejaVuSans-6e" transform="translate(220.699219 0)"/>
       <use xlink:href="#DejaVuSans-61" transform="translate(284.078125 0)"/>
      </g>
     </g>
    </g>
    <g id="ytick_8">
     <g id="line2d_23">
      <path d="M 151.599062 106.024762 
L 421.979062 106.024762 
" clip-path="url(#p7db7a174c0)" style="fill: none; stroke: #d3d3d3; stroke-opacity: 0.9; stroke-width: 0.8; stroke-linecap: square"/>
     </g>
     <g id="text_16">
      <!-- Banheiro -->
      <g style="fill: #333333" transform="translate(117.839062 108.304293) scale(0.06 -0.06)">
       <defs>
        <path id="DejaVuSans-42" d="M 1259 2228 
L 1259 519 
L 2272 519 
Q 2781 519 3026 730 
Q 3272 941 3272 1375 
Q 3272 1813 3026 2020 
Q 2781 2228 2272 2228 
L 1259 2228 
z
M 1259 4147 
L 1259 2741 
L 2194 2741 
Q 2656 2741 2882 2914 
Q 3109 3088 3109 3444 
Q 3109 3797 2882 3972 
Q 2656 4147 2194 4147 
L 1259 4147 
z
M 628 4666 
L 2241 4666 
Q 2963 4666 3353 4366 
Q 3744 4066 3744 3513 
Q 3744 3084 3544 2831 
Q 3344 2578 2956 2516 
Q 3422 2416 3680 2098 
Q 3938 1781 3938 1306 
Q 3938 681 3513 340 
Q 3088 0 2303 0 
L 628 0 
L 628 4666 
z
" transform="scale(0.015625)"/>
        <path id="DejaVuSans-68" d="M 3513 2113 
L 3513 0 
L 2938 0 
L 2938 2094 
Q 2938 2591 2744 2837 
Q 2550 3084 2163 3084 
Q 1697 3084 1428 2787 
Q 1159 2491 1159 1978 
L 1159 0 
L 581 0 
L 581 4863 
L 1159 4863 
L 1159 2956 
Q 1366 3272 1645 3428 
Q 1925 3584 2291 3584 
Q 2894 3584 3203 3211 
Q 3513 2838 3513 2113 
z
" transform="scale(0.015625)"/>
       </defs>
       <use xlink:href="#DejaVuSans-42"/>
       <use xlink:href="#DejaVuSans-61" transform="translate(68.603516 0)"/>
       <use xlink:href="#DejaVuSans-6e" transform="translate(129.882812 0)"/>
       <use xlink:href="#DejaVuSans-68" transform="translate(193.261719 0)"/>
       <use xlink:href="#DejaVuSans-65" transform="translate(256.640625 0)"/>
       <use xlink:href="#DejaVuSans-69" transform="translate(318.164062 0)"/>
       <use xlink:href="#DejaVuSans-72" transform="translate(345.947266 0)"/>
       <use xlink:href="#DejaVuSans-6f" transform="translate(384.810547 0)"/>
      </g>
     </g>
    </g>
    <g id="ytick_9">
     <g id="line2d_24">
      <path d="M 151.599062 98.422857 
L 421.979062 98.422857 
" clip-path="url(#p7db7a174c0)" style="fill: none; stroke: #d3d3d3; stroke-opacity: 0.9; stroke-width: 0.8; stroke-linecap: square"/>
     </g>
     <g id="text_17">
      <!-- Academia -->
      <g style="fill: #333333" transform="translate(114.934687 100.702388) scale(0.06 -0.06)">
       <use xlink:href="#DejaVuSans-41"/>
       <use xlink:href="#DejaVuSans-63" transform="translate(66.658203 0)"/>
       <use xlink:href="#DejaVuSans-61" transform="translate(121.638672 0)"/>
       <use xlink:href="#DejaVuSans-64" transform="translate(182.917969 0)"/>
       <use xlink:href="#DejaVuSans-65" transform="translate(246.394531 0)"/>
       <use xlink:href="#DejaVuSans-6d" transform="translate(307.917969 0)"/>
       <use xlink:href="#DejaVuSans-69" transform="translate(405.330078 0)"/>
       <use xlink:href="#DejaVuSans-61" transform="translate(433.113281 0)"/>
      </g>
     </g>
    </g>
    <g id="ytick_10">
     <g id="line2d_25">
      <path d="M 151.599062 90.820952 
L 421.979062 90.820952 
" clip-path="url(#p7db7a174c0)" style="fill: none; stroke: #d3d3d3; stroke-opacity: 0.9; stroke-width: 0.8; stroke-linecap: square"/>
     </g>
     <g id="text_18">
      <!-- Área de aluguel -->
      <g style="fill: #333333" transform="translate(97.363125 93.596421) scale(0.06 -0.06)">
       <use xlink:href="#DejaVuSans-c1"/>
       <use xlink:href="#DejaVuSans-72" transform="translate(68.408203 0)"/>
       <use xlink:href="#DejaVuSans-65" transform="translate(107.271484 0)"/>
       <use xlink:href="#DejaVuSans-61" transform="translate(168.794922 0)"/>
       <use xlink:href="#DejaVuSans-20" transform="translate(230.074219 0)"/>
       <use xlink:href="#DejaVuSans-64" transform="translate(261.861328 0)"/>
       <use xlink:href="#DejaVuSans-65" transform="translate(325.337891 0)"/>
       <use xlink:href="#DejaVuSans-20" transform="translate(386.861328 0)"/>
       <use xlink:href="#DejaVuSans-61" transform="translate(418.648438 0)"/>
       <use xlink:href="#DejaVuSans-6c" transform="translate(479.927734 0)"/>
       <use xlink:href="#DejaVuSans-75" transform="translate(507.710938 0)"/>
       <use xlink:href="#DejaVuSans-67" transform="translate(571.089844 0)"/>
       <use xlink:href="#DejaVuSans-75" transform="translate(634.566406 0)"/>
       <use xlink:href="#DejaVuSans-65" transform="translate(697.945312 0)"/>
       <use xlink:href="#DejaVuSans-6c" transform="translate(759.46875 0)"/>
      </g>
     </g>
    </g>
    <g id="ytick_11">
     <g id="line2d_26">
      <path d="M 151.599062 83.219048 
L 421.979062 83.219048 
" clip-path="url(#p7db7a174c0)" style="fill: none; stroke: #d3d3d3; stroke-opacity: 0.9; stroke-width: 0.8; stroke-linecap: square"/>
     </g>
     <g id="text_19">
      <!-- Produto entre quarto e área de aluguel -->
      <g style="fill: #333333" transform="translate(27.672187 85.618579) scale(0.06 -0.06)">
       <defs>
        <path id="DejaVuSans-71" d="M 947 1747 
Q 947 1113 1208 752 
Q 1469 391 1925 391 
Q 2381 391 2643 752 
Q 2906 1113 2906 1747 
Q 2906 2381 2643 2742 
Q 2381 3103 1925 3103 
Q 1469 3103 1208 2742 
Q 947 2381 947 1747 
z
M 2906 525 
Q 2725 213 2448 61 
Q 2172 -91 1784 -91 
Q 1150 -91 751 415 
Q 353 922 353 1747 
Q 353 2572 751 3078 
Q 1150 3584 1784 3584 
Q 2172 3584 2448 3432 
Q 2725 3281 2906 2969 
L 2906 3500 
L 3481 3500 
L 3481 -1331 
L 2906 -1331 
L 2906 525 
z
" transform="scale(0.015625)"/>
        <path id="DejaVuSans-e1" d="M 2194 1759 
Q 1497 1759 1228 1600 
Q 959 1441 959 1056 
Q 959 750 1161 570 
Q 1363 391 1709 391 
Q 2188 391 2477 730 
Q 2766 1069 2766 1631 
L 2766 1759 
L 2194 1759 
z
M 3341 1997 
L 3341 0 
L 2766 0 
L 2766 531 
Q 2569 213 2275 61 
Q 1981 -91 1556 -91 
Q 1019 -91 701 211 
Q 384 513 384 1019 
Q 384 1609 779 1909 
Q 1175 2209 1959 2209 
L 2766 2209 
L 2766 2266 
Q 2766 2663 2505 2880 
Q 2244 3097 1772 3097 
Q 1472 3097 1187 3025 
Q 903 2953 641 2809 
L 641 3341 
Q 956 3463 1253 3523 
Q 1550 3584 1831 3584 
Q 2591 3584 2966 3190 
Q 3341 2797 3341 1997 
z
M 2290 5119 
L 2912 5119 
L 1894 3944 
L 1415 3944 
L 2290 5119 
z
" transform="scale(0.015625)"/>
       </defs>
       <use xlink:href="#DejaVuSans-50"/>
       <use xlink:href="#DejaVuSans-72" transform="translate(58.552734 0)"/>
       <use xlink:href="#DejaVuSans-6f" transform="translate(97.416016 0)"/>
       <use xlink:href="#DejaVuSans-64" transform="translate(158.597656 0)"/>
       <use xlink:href="#DejaVuSans-75" transform="translate(222.074219 0)"/>
       <use xlink:href="#DejaVuSans-74" transform="translate(285.453125 0)"/>
       <use xlink:href="#DejaVuSans-6f" transform="translate(324.662109 0)"/>
       <use xlink:href="#DejaVuSans-20" transform="translate(385.84375 0)"/>
       <use xlink:href="#DejaVuSans-65" transform="translate(417.630859 0)"/>
       <use xlink:href="#DejaVuSans-6e" transform="translate(479.154297 0)"/>
       <use xlink:href="#DejaVuSans-74" transform="translate(542.533203 0)"/>
       <use xlink:href="#DejaVuSans-72" transform="translate(581.742188 0)"/>
       <use xlink:href="#DejaVuSans-65" transform="translate(620.605469 0)"/>
       <use xlink:href="#DejaVuSans-20" transform="translate(682.128906 0)"/>
       <use xlink:href="#DejaVuSans-71" transform="translate(713.916016 0)"/>
       <use xlink:href="#DejaVuSans-75" transform="translate(777.392578 0)"/>
       <use xlink:href="#DejaVuSans-61" transform="translate(840.771484 0)"/>
       <use xlink:href="#DejaVuSans-72" transform="translate(902.050781 0)"/>
       <use xlink:href="#DejaVuSans-74" transform="translate(943.164062 0)"/>
       <use xlink:href="#DejaVuSans-6f" transform="translate(982.373047 0)"/>
       <use xlink:href="#DejaVuSans-20" transform="translate(1043.554688 0)"/>
       <use xlink:href="#DejaVuSans-65" transform="translate(1075.341797 0)"/>
       <use xlink:href="#DejaVuSans-20" transform="translate(1136.865234 0)"/>
       <use xlink:href="#DejaVuSans-e1" transform="translate(1168.652344 0)"/>
       <use xlink:href="#DejaVuSans-72" transform="translate(1229.931641 0)"/>
       <use xlink:href="#DejaVuSans-65" transform="translate(1268.794922 0)"/>
       <use xlink:href="#DejaVuSans-61" transform="translate(1330.318359 0)"/>
       <use xlink:href="#DejaVuSans-20" transform="translate(1391.597656 0)"/>
       <use xlink:href="#DejaVuSans-64" transform="translate(1423.384766 0)"/>
       <use xlink:href="#DejaVuSans-65" transform="translate(1486.861328 0)"/>
       <use xlink:href="#DejaVuSans-20" transform="translate(1548.384766 0)"/>
       <use xlink:href="#DejaVuSans-61" transform="translate(1580.171875 0)"/>
       <use xlink:href="#DejaVuSans-6c" transform="translate(1641.451172 0)"/>
       <use xlink:href="#DejaVuSans-75" transform="translate(1669.234375 0)"/>
       <use xlink:href="#DejaVuSans-67" transform="translate(1732.613281 0)"/>
       <use xlink:href="#DejaVuSans-75" transform="translate(1796.089844 0)"/>
       <use xlink:href="#DejaVuSans-65" transform="translate(1859.46875 0)"/>
       <use xlink:href="#DejaVuSans-6c" transform="translate(1920.992188 0)"/>
      </g>
     </g>
    </g>
    <g id="ytick_12">
     <g id="line2d_27">
      <path d="M 151.599062 75.617143 
L 421.979062 75.617143 
" clip-path="url(#p7db7a174c0)" style="fill: none; stroke: #d3d3d3; stroke-opacity: 0.9; stroke-width: 0.8; stroke-linecap: square"/>
     </g>
     <g id="text_20">
      <!-- Quantidade de cômodos -->
      <g style="fill: #333333" transform="translate(71.181562 77.896674) scale(0.06 -0.06)">
       <defs>
        <path id="DejaVuSans-51" d="M 2522 4238 
Q 1834 4238 1429 3725 
Q 1025 3213 1025 2328 
Q 1025 1447 1429 934 
Q 1834 422 2522 422 
Q 3209 422 3611 934 
Q 4013 1447 4013 2328 
Q 4013 3213 3611 3725 
Q 3209 4238 2522 4238 
z
M 3406 84 
L 4238 -825 
L 3475 -825 
L 2784 -78 
Q 2681 -84 2626 -87 
Q 2572 -91 2522 -91 
Q 1538 -91 948 567 
Q 359 1225 359 2328 
Q 359 3434 948 4092 
Q 1538 4750 2522 4750 
Q 3503 4750 4090 4092 
Q 4678 3434 4678 2328 
Q 4678 1516 4351 937 
Q 4025 359 3406 84 
z
" transform="scale(0.015625)"/>
        <path id="DejaVuSans-f4" d="M 1959 3097 
Q 1497 3097 1228 2736 
Q 959 2375 959 1747 
Q 959 1119 1226 758 
Q 1494 397 1959 397 
Q 2419 397 2687 759 
Q 2956 1122 2956 1747 
Q 2956 2369 2687 2733 
Q 2419 3097 1959 3097 
z
M 1959 3584 
Q 2709 3584 3137 3096 
Q 3566 2609 3566 1747 
Q 3566 888 3137 398 
Q 2709 -91 1959 -91 
Q 1206 -91 779 398 
Q 353 888 353 1747 
Q 353 2609 779 3096 
Q 1206 3584 1959 3584 
z
M 1729 5119 
L 2191 5119 
L 2957 3944 
L 2523 3944 
L 1960 4709 
L 1398 3944 
L 963 3944 
L 1729 5119 
z
" transform="scale(0.015625)"/>
       </defs>
       <use xlink:href="#DejaVuSans-51"/>
       <use xlink:href="#DejaVuSans-75" transform="translate(78.710938 0)"/>
       <use xlink:href="#DejaVuSans-61" transform="translate(142.089844 0)"/>
       <use xlink:href="#DejaVuSans-6e" transform="translate(203.369141 0)"/>
       <use xlink:href="#DejaVuSans-74" transform="translate(266.748047 0)"/>
       <use xlink:href="#DejaVuSans-69" transform="translate(305.957031 0)"/>
       <use xlink:href="#DejaVuSans-64" transform="translate(333.740234 0)"/>
       <use xlink:href="#DejaVuSans-61" transform="translate(397.216797 0)"/>
       <use xlink:href="#DejaVuSans-64" transform="translate(458.496094 0)"/>
       <use xlink:href="#DejaVuSans-65" transform="translate(521.972656 0)"/>
       <use xlink:href="#DejaVuSans-20" transform="translate(583.496094 0)"/>
       <use xlink:href="#DejaVuSans-64" transform="translate(615.283203 0)"/>
       <use xlink:href="#DejaVuSans-65" transform="translate(678.759766 0)"/>
       <use xlink:href="#DejaVuSans-20" transform="translate(740.283203 0)"/>
       <use xlink:href="#DejaVuSans-63" transform="translate(772.070312 0)"/>
       <use xlink:href="#DejaVuSans-f4" transform="translate(827.050781 0)"/>
       <use xlink:href="#DejaVuSans-6d" transform="translate(888.232422 0)"/>
       <use xlink:href="#DejaVuSans-6f" transform="translate(985.644531 0)"/>
       <use xlink:href="#DejaVuSans-64" transform="translate(1046.826172 0)"/>
       <use xlink:href="#DejaVuSans-6f" transform="translate(1110.302734 0)"/>
       <use xlink:href="#DejaVuSans-73" transform="translate(1171.484375 0)"/>
      </g>
     </g>
    </g>
    <g id="ytick_13">
     <g id="line2d_28">
      <path d="M 151.599062 68.015238 
L 421.979062 68.015238 
" clip-path="url(#p7db7a174c0)" style="fill: none; stroke: #d3d3d3; stroke-opacity: 0.9; stroke-width: 0.8; stroke-linecap: square"/>
     </g>
     <g id="text_21">
      <!-- Valor de aluguel -->
      <g style="fill: #333333" transform="translate(96.046875 70.294769) scale(0.06 -0.06)">
       <use xlink:href="#DejaVuSans-56"/>
       <use xlink:href="#DejaVuSans-61" transform="translate(60.658203 0)"/>
       <use xlink:href="#DejaVuSans-6c" transform="translate(121.9375 0)"/>
       <use xlink:href="#DejaVuSans-6f" transform="translate(149.720703 0)"/>
       <use xlink:href="#DejaVuSans-72" transform="translate(210.902344 0)"/>
       <use xlink:href="#DejaVuSans-20" transform="translate(252.015625 0)"/>
       <use xlink:href="#DejaVuSans-64" transform="translate(283.802734 0)"/>
       <use xlink:href="#DejaVuSans-65" transform="translate(347.279297 0)"/>
       <use xlink:href="#DejaVuSans-20" transform="translate(408.802734 0)"/>
       <use xlink:href="#DejaVuSans-61" transform="translate(440.589844 0)"/>
       <use xlink:href="#DejaVuSans-6c" transform="translate(501.869141 0)"/>
       <use xlink:href="#DejaVuSans-75" transform="translate(529.652344 0)"/>
       <use xlink:href="#DejaVuSans-67" transform="translate(593.03125 0)"/>
       <use xlink:href="#DejaVuSans-75" transform="translate(656.507812 0)"/>
       <use xlink:href="#DejaVuSans-65" transform="translate(719.886719 0)"/>
       <use xlink:href="#DejaVuSans-6c" transform="translate(781.410156 0)"/>
      </g>
     </g>
    </g>
    <g id="ytick_14">
     <g id="line2d_29">
      <path d="M 151.599062 60.413333 
L 421.979062 60.413333 
" clip-path="url(#p7db7a174c0)" style="fill: none; stroke: #d3d3d3; stroke-opacity: 0.9; stroke-width: 0.8; stroke-linecap: square"/>
     </g>
     <g id="text_22">
      <!-- Quarto -->
      <g style="fill: #333333" transform="translate(123.906562 62.692865) scale(0.06 -0.06)">
       <use xlink:href="#DejaVuSans-51"/>
       <use xlink:href="#DejaVuSans-75" transform="translate(78.710938 0)"/>
       <use xlink:href="#DejaVuSans-61" transform="translate(142.089844 0)"/>
       <use xlink:href="#DejaVuSans-72" transform="translate(203.369141 0)"/>
       <use xlink:href="#DejaVuSans-74" transform="translate(244.482422 0)"/>
       <use xlink:href="#DejaVuSans-6f" transform="translate(283.691406 0)"/>
      </g>
     </g>
    </g>
    <g id="ytick_15">
     <g id="line2d_30">
      <path d="M 151.599062 52.811429 
L 421.979062 52.811429 
" clip-path="url(#p7db7a174c0)" style="fill: none; stroke: #d3d3d3; stroke-opacity: 0.9; stroke-width: 0.8; stroke-linecap: square"/>
     </g>
     <g id="text_23">
      <!-- Latitude -->
      <g style="fill: #333333" transform="translate(119.904375 55.09096) scale(0.06 -0.06)">
       <defs>
        <path id="DejaVuSans-4c" d="M 628 4666 
L 1259 4666 
L 1259 531 
L 3531 531 
L 3531 0 
L 628 0 
L 628 4666 
z
" transform="scale(0.015625)"/>
       </defs>
       <use xlink:href="#DejaVuSans-4c"/>
       <use xlink:href="#DejaVuSans-61" transform="translate(55.712891 0)"/>
       <use xlink:href="#DejaVuSans-74" transform="translate(116.992188 0)"/>
       <use xlink:href="#DejaVuSans-69" transform="translate(156.201172 0)"/>
       <use xlink:href="#DejaVuSans-74" transform="translate(183.984375 0)"/>
       <use xlink:href="#DejaVuSans-75" transform="translate(223.193359 0)"/>
       <use xlink:href="#DejaVuSans-64" transform="translate(286.572266 0)"/>
       <use xlink:href="#DejaVuSans-65" transform="translate(350.048828 0)"/>
      </g>
     </g>
    </g>
    <g id="ytick_16">
     <g id="line2d_31">
      <path d="M 151.599062 45.209524 
L 421.979062 45.209524 
" clip-path="url(#p7db7a174c0)" style="fill: none; stroke: #d3d3d3; stroke-opacity: 0.9; stroke-width: 0.8; stroke-linecap: square"/>
     </g>
     <g id="text_24">
      <!-- Produto entre coordenadas e valor de aluguel -->
      <g style="fill: #333333" transform="translate(7.2 47.489055) scale(0.06 -0.06)">
       <use xlink:href="#DejaVuSans-50"/>
       <use xlink:href="#DejaVuSans-72" transform="translate(58.552734 0)"/>
       <use xlink:href="#DejaVuSans-6f" transform="translate(97.416016 0)"/>
       <use xlink:href="#DejaVuSans-64" transform="translate(158.597656 0)"/>
       <use xlink:href="#DejaVuSans-75" transform="translate(222.074219 0)"/>
       <use xlink:href="#DejaVuSans-74" transform="translate(285.453125 0)"/>
       <use xlink:href="#DejaVuSans-6f" transform="translate(324.662109 0)"/>
       <use xlink:href="#DejaVuSans-20" transform="translate(385.84375 0)"/>
       <use xlink:href="#DejaVuSans-65" transform="translate(417.630859 0)"/>
       <use xlink:href="#DejaVuSans-6e" transform="translate(479.154297 0)"/>
       <use xlink:href="#DejaVuSans-74" transform="translate(542.533203 0)"/>
       <use xlink:href="#DejaVuSans-72" transform="translate(581.742188 0)"/>
       <use xlink:href="#DejaVuSans-65" transform="translate(620.605469 0)"/>
       <use xlink:href="#DejaVuSans-20" transform="translate(682.128906 0)"/>
       <use xlink:href="#DejaVuSans-63" transform="translate(713.916016 0)"/>
       <use xlink:href="#DejaVuSans-6f" transform="translate(768.896484 0)"/>
       <use xlink:href="#DejaVuSans-6f" transform="translate(830.078125 0)"/>
       <use xlink:href="#DejaVuSans-72" transform="translate(891.259766 0)"/>
       <use xlink:href="#DejaVuSans-64" transform="translate(930.623047 0)"/>
       <use xlink:href="#DejaVuSans-65" transform="translate(994.099609 0)"/>
       <use xlink:href="#DejaVuSans-6e" transform="translate(1055.623047 0)"/>
       <use xlink:href="#DejaVuSans-61" transform="translate(1119.001953 0)"/>
       <use xlink:href="#DejaVuSans-64" transform="translate(1180.28125 0)"/>
       <use xlink:href="#DejaVuSans-61" transform="translate(1243.757812 0)"/>
       <use xlink:href="#DejaVuSans-73" transform="translate(1305.037109 0)"/>
       <use xlink:href="#DejaVuSans-20" transform="translate(1357.136719 0)"/>
       <use xlink:href="#DejaVuSans-65" transform="translate(1388.923828 0)"/>
       <use xlink:href="#DejaVuSans-20" transform="translate(1450.447266 0)"/>
       <use xlink:href="#DejaVuSans-76" transform="translate(1482.234375 0)"/>
       <use xlink:href="#DejaVuSans-61" transform="translate(1541.414062 0)"/>
       <use xlink:href="#DejaVuSans-6c" transform="translate(1602.693359 0)"/>
       <use xlink:href="#DejaVuSans-6f" transform="translate(1630.476562 0)"/>
       <use xlink:href="#DejaVuSans-72" transform="translate(1691.658203 0)"/>
       <use xlink:href="#DejaVuSans-20" transform="translate(1732.771484 0)"/>
       <use xlink:href="#DejaVuSans-64" transform="translate(1764.558594 0)"/>
       <use xlink:href="#DejaVuSans-65" transform="translate(1828.035156 0)"/>
       <use xlink:href="#DejaVuSans-20" transform="translate(1889.558594 0)"/>
       <use xlink:href="#DejaVuSans-61" transform="translate(1921.345703 0)"/>
       <use xlink:href="#DejaVuSans-6c" transform="translate(1982.625 0)"/>
       <use xlink:href="#DejaVuSans-75" transform="translate(2010.408203 0)"/>
       <use xlink:href="#DejaVuSans-67" transform="translate(2073.787109 0)"/>
       <use xlink:href="#DejaVuSans-75" transform="translate(2137.263672 0)"/>
       <use xlink:href="#DejaVuSans-65" transform="translate(2200.642578 0)"/>
       <use xlink:href="#DejaVuSans-6c" transform="translate(2262.166016 0)"/>
      </g>
     </g>
    </g>
    <g id="ytick_17">
     <g id="line2d_32">
      <path d="M 151.599062 37.607619 
L 421.979062 37.607619 
" clip-path="url(#p7db7a174c0)" style="fill: none; stroke: #d3d3d3; stroke-opacity: 0.9; stroke-width: 0.8; stroke-linecap: square"/>
     </g>
     <g id="text_25">
      <!-- Longitude -->
      <g style="fill: #333333" transform="translate(114.755625 39.88715) scale(0.06 -0.06)">
       <use xlink:href="#DejaVuSans-4c"/>
       <use xlink:href="#DejaVuSans-6f" transform="translate(53.962891 0)"/>
       <use xlink:href="#DejaVuSans-6e" transform="translate(115.144531 0)"/>
       <use xlink:href="#DejaVuSans-67" transform="translate(178.523438 0)"/>
       <use xlink:href="#DejaVuSans-69" transform="translate(242 0)"/>
       <use xlink:href="#DejaVuSans-74" transform="translate(269.783203 0)"/>
       <use xlink:href="#DejaVuSans-75" transform="translate(308.992188 0)"/>
       <use xlink:href="#DejaVuSans-64" transform="translate(372.371094 0)"/>
       <use xlink:href="#DejaVuSans-65" transform="translate(435.847656 0)"/>
      </g>
     </g>
    </g>
    <g id="ytick_18">
     <g id="line2d_33">
      <path d="M 151.599062 30.005714 
L 421.979062 30.005714 
" clip-path="url(#p7db7a174c0)" style="fill: none; stroke: #d3d3d3; stroke-opacity: 0.9; stroke-width: 0.8; stroke-linecap: square"/>
     </g>
     <g id="text_26">
      <!-- Vaga -->
      <g style="fill: #333333" transform="translate(129.796875 32.285246) scale(0.06 -0.06)">
       <use xlink:href="#DejaVuSans-56"/>
       <use xlink:href="#DejaVuSans-61" transform="translate(60.658203 0)"/>
       <use xlink:href="#DejaVuSans-67" transform="translate(121.9375 0)"/>
       <use xlink:href="#DejaVuSans-61" transform="translate(185.414062 0)"/>
      </g>
     </g>
    </g>
    <g id="ytick_19">
     <g id="line2d_34">
      <path d="M 151.599062 22.40381 
L 421.979062 22.40381 
" clip-path="url(#p7db7a174c0)" style="fill: none; stroke: #d3d3d3; stroke-opacity: 0.9; stroke-width: 0.8; stroke-linecap: square"/>
     </g>
     <g id="text_27">
      <!-- Quarto por área -->
      <g style="fill: #333333" transform="translate(96.76875 24.803341) scale(0.06 -0.06)">
       <use xlink:href="#DejaVuSans-51"/>
       <use xlink:href="#DejaVuSans-75" transform="translate(78.710938 0)"/>
       <use xlink:href="#DejaVuSans-61" transform="translate(142.089844 0)"/>
       <use xlink:href="#DejaVuSans-72" transform="translate(203.369141 0)"/>
       <use xlink:href="#DejaVuSans-74" transform="translate(244.482422 0)"/>
       <use xlink:href="#DejaVuSans-6f" transform="translate(283.691406 0)"/>
       <use xlink:href="#DejaVuSans-20" transform="translate(344.873047 0)"/>
       <use xlink:href="#DejaVuSans-70" transform="translate(376.660156 0)"/>
       <use xlink:href="#DejaVuSans-6f" transform="translate(440.136719 0)"/>
       <use xlink:href="#DejaVuSans-72" transform="translate(501.318359 0)"/>
       <use xlink:href="#DejaVuSans-20" transform="translate(542.431641 0)"/>
       <use xlink:href="#DejaVuSans-e1" transform="translate(574.21875 0)"/>
       <use xlink:href="#DejaVuSans-72" transform="translate(635.498047 0)"/>
       <use xlink:href="#DejaVuSans-65" transform="translate(674.361328 0)"/>
       <use xlink:href="#DejaVuSans-61" transform="translate(735.884766 0)"/>
      </g>
     </g>
    </g>
    <g id="ytick_20">
     <g id="line2d_35">
      <path d="M 151.599062 14.801905 
L 421.979062 14.801905 
" clip-path="url(#p7db7a174c0)" style="fill: none; stroke: #d3d3d3; stroke-opacity: 0.9; stroke-width: 0.8; stroke-linecap: square"/>
     </g>
     <g id="text_28">
      <!-- Área -->
      <g style="fill: #333333" transform="translate(130.794375 17.081436) scale(0.06 -0.06)">
       <use xlink:href="#DejaVuSans-c1"/>
       <use xlink:href="#DejaVuSans-72" transform="translate(68.408203 0)"/>
       <use xlink:href="#DejaVuSans-65" transform="translate(107.271484 0)"/>
       <use xlink:href="#DejaVuSans-61" transform="translate(168.794922 0)"/>
      </g>
     </g>
    </g>
   </g>
   <g id="patch_3">
    <path d="M 151.599062 161.898762 
L 172.788315 161.898762 
L 172.788315 156.577429 
L 151.599062 156.577429 
z
" clip-path="url(#p7db7a174c0)" style="fill: #00708d"/>
   </g>
   <g id="patch_4">
    <path d="M 151.599062 154.296857 
L 173.762109 154.296857 
L 173.762109 148.975524 
L 151.599062 148.975524 
z
" clip-path="url(#p7db7a174c0)" style="fill: #00708d"/>
   </g>
   <g id="patch_5">
    <path d="M 151.599062 146.694952 
L 175.109573 146.694952 
L 175.109573 141.373619 
L 151.599062 141.373619 
z
" clip-path="url(#p7db7a174c0)" style="fill: #00708d"/>
   </g>
   <g id="patch_6">
    <path d="M 151.599062 139.093048 
L 178.159261 139.093048 
L 178.159261 133.771714 
L 151.599062 133.771714 
z
" clip-path="url(#p7db7a174c0)" style="fill: #00708d"/>
   </g>
   <g id="patch_7">
    <path d="M 151.599062 131.491143 
L 183.204459 131.491143 
L 183.204459 126.16981 
L 151.599062 126.16981 
z
" clip-path="url(#p7db7a174c0)" style="fill: #00708d"/>
   </g>
   <g id="patch_8">
    <path d="M 151.599062 123.889238 
L 192.79958 123.889238 
L 192.79958 118.567905 
L 151.599062 118.567905 
z
" clip-path="url(#p7db7a174c0)" style="fill: #00708d"/>
   </g>
   <g id="patch_9">
    <path d="M 151.599062 116.287333 
L 196.343206 116.287333 
L 196.343206 110.966 
L 151.599062 110.966 
z
" clip-path="url(#p7db7a174c0)" style="fill: #00708d"/>
   </g>
   <g id="patch_10">
    <path d="M 151.599062 108.685429 
L 218.450218 108.685429 
L 218.450218 103.364095 
L 151.599062 103.364095 
z
" clip-path="url(#p7db7a174c0)" style="fill: #00708d"/>
   </g>
   <g id="patch_11">
    <path d="M 151.599062 101.083524 
L 220.171972 101.083524 
L 220.171972 95.76219 
L 151.599062 95.76219 
z
" clip-path="url(#p7db7a174c0)" style="fill: #00708d"/>
   </g>
   <g id="patch_12">
    <path d="M 151.599062 93.481619 
L 220.513216 93.481619 
L 220.513216 88.160286 
L 151.599062 88.160286 
z
" clip-path="url(#p7db7a174c0)" style="fill: #00708d"/>
   </g>
   <g id="patch_13">
    <path d="M 151.599062 85.879714 
L 229.345252 85.879714 
L 229.345252 80.558381 
L 151.599062 80.558381 
z
" clip-path="url(#p7db7a174c0)" style="fill: #00708d"/>
   </g>
   <g id="patch_14">
    <path d="M 151.599062 78.27781 
L 238.009122 78.27781 
L 238.009122 72.956476 
L 151.599062 72.956476 
z
" clip-path="url(#p7db7a174c0)" style="fill: #00708d"/>
   </g>
   <g id="patch_15">
    <path d="M 151.599062 70.675905 
L 250.189945 70.675905 
L 250.189945 65.354571 
L 151.599062 65.354571 
z
" clip-path="url(#p7db7a174c0)" style="fill: #00708d"/>
   </g>
   <g id="patch_16">
    <path d="M 151.599062 63.074 
L 262.974535 63.074 
L 262.974535 57.752667 
L 151.599062 57.752667 
z
" clip-path="url(#p7db7a174c0)" style="fill: #00708d"/>
   </g>
   <g id="patch_17">
    <path d="M 151.599062 55.472095 
L 285.019089 55.472095 
L 285.019089 50.150762 
L 151.599062 50.150762 
z
" clip-path="url(#p7db7a174c0)" style="fill: #00708d"/>
   </g>
   <g id="patch_18">
    <path d="M 151.599062 47.87019 
L 290.411481 47.87019 
L 290.411481 42.548857 
L 151.599062 42.548857 
z
" clip-path="url(#p7db7a174c0)" style="fill: #00708d"/>
   </g>
   <g id="patch_19">
    <path d="M 151.599062 40.268286 
L 330.990724 40.268286 
L 330.990724 34.946952 
L 151.599062 34.946952 
z
" clip-path="url(#p7db7a174c0)" style="fill: #00708d"/>
   </g>
   <g id="patch_20">
    <path d="M 151.599062 32.666381 
L 336.562067 32.666381 
L 336.562067 27.345048 
L 151.599062 27.345048 
z
" clip-path="url(#p7db7a174c0)" style="fill: #00708d"/>
   </g>
   <g id="patch_21">
    <path d="M 151.599062 25.064476 
L 359.58292 25.064476 
L 359.58292 19.743143 
L 151.599062 19.743143 
z
" clip-path="url(#p7db7a174c0)" style="fill: #00708d"/>
   </g>
   <g id="patch_22">
    <path d="M 151.599062 17.462571 
L 409.103824 17.462571 
L 409.103824 12.141238 
L 151.599062 12.141238 
z
" clip-path="url(#p7db7a174c0)" style="fill: #00708d"/>
   </g>
   <g id="patch_23">
    <path d="M 151.599062 166.84 
L 421.979062 166.84 
" style="fill: none; stroke: #000000; stroke-width: 0.8; stroke-linejoin: miter; stroke-linecap: square"/>
   </g>
  </g>
 </g>
 <defs>
  <clipPath id="p7db7a174c0">
   <rect x="151.599062" y="7.2" width="270.38" height="159.64"/>
  </clipPath>
 </defs>
</svg>
